<?xml version="1.0" encoding="utf-8"?>
<!-- Generator: Adobe Illustrator 27.5.0, SVG Export Plug-In . SVG Version: 6.00 Build 0)  -->
<svg version="1.1" id="Layer_1" xmlns="http://www.w3.org/2000/svg" xmlns:xlink="http://www.w3.org/1999/xlink" x="0px" y="0px"
	 viewBox="0 0 277.423 344.473" style="enable-background:new 0 0 277.423 344.473;" xml:space="preserve">
<g>
	<g>
		<g>
			<rect x="185.738" y="5.167" style="fill:#816549;" width="74.048" height="94.633"/>
			<rect x="192.039" y="9.781" style="fill:#D3EAD9;" width="61.445" height="85.406"/>
			<g>
				<g>
					<path style="fill:#FFFFFF;" d="M215.728,83.426c-0.966,3.771-4.269,5.809-5.476,11.761h29.446
						c-1.207-5.952-4.51-7.989-5.476-11.761c-1.304-5.091,2.64-7.441,2.64-7.441s-7.012-0.035-10.747-0.053l0-0.01
						c-0.039,0-0.468,0.002-1.139,0.005c-0.671-0.003-1.1-0.005-1.139-0.005l0,0.01c-3.735,0.018-10.747,0.053-10.747,0.053
						S217.033,78.335,215.728,83.426z"/>
					<path style="fill:#B2B6B6;" d="M236.899,75.921c0,0.417-5.33,0.754-11.906,0.754c-6.575,0-11.906-0.338-11.906-0.754
						c0-0.417,5.33-0.754,11.906-0.754C231.569,75.167,236.899,75.505,236.899,75.921z"/>
					<g>
						<polygon style="fill:#84B5BC;" points="217.134,92.842 218.121,92.792 217.956,93.604 217.479,93.685 						"/>
						<polygon style="fill:#AFA0AB;" points="213.787,89.57 213.928,89.869 213.656,89.922 213.57,89.784 						"/>
						<polygon style="fill:#C1A280;" points="219.845,89.088 220.055,89.531 219.651,89.609 219.524,89.406 						"/>
						<polygon style="fill:#EBE9A2;" points="216.42,86.421 216.714,87.043 216.148,87.152 215.969,86.866 						"/>
					</g>
					<g>
						<polygon style="fill:#84B5BC;" points="228.939,88.137 228.205,88.798 227.821,88.064 228.14,87.7 						"/>
						<polygon style="fill:#AFA0AB;" points="233.599,88.569 233.301,88.425 233.48,88.213 233.633,88.266 						"/>
						<polygon style="fill:#C1A280;" points="229.199,92.76 228.758,92.549 229.022,92.234 229.249,92.312 						"/>
						<polygon style="fill:#DBCA74;" points="230.721,84.272 230.101,83.974 230.472,83.532 230.791,83.642 						"/>
						<polygon style="fill:#EBE9A2;" points="233.539,92.673 232.919,92.375 233.29,91.934 233.609,92.043 						"/>
					</g>
					<g>
						<polygon style="fill:#84B5BC;" points="224.914,83.423 225.603,82.715 226.035,83.422 225.74,83.806 						"/>
						<polygon style="fill:#AFA0AB;" points="220.235,83.302 220.542,83.425 220.378,83.648 220.222,83.606 						"/>
						<polygon style="fill:#C1A280;" points="224.348,78.827 224.803,79.009 224.56,79.341 224.328,79.278 						"/>
						<polygon style="fill:#DBCA74;" points="223.392,87.398 224.03,87.654 223.689,88.119 223.364,88.032 						"/>
						<polygon style="fill:#EBE9A2;" points="220.023,79.202 220.661,79.458 220.321,79.923 219.995,79.836 						"/>
					</g>
				</g>
				<g>
					<g>
						<path style="fill:#D8804E;" d="M228.886,25.168c-0.462-0.45-0.803-0.998-1.063-1.587c-0.062-0.174-0.119-0.349-0.174-0.52
							c-0.409-1.278-0.482-2.696-0.15-4.022c0.188-0.751,0.507-1.456,0.949-2.101c0.052-0.076,0.133-0.078,0.201-0.021
							c0.991,0.835,1.55,2.166,1.872,3.395c0.347,1.326,0.388,2.689,0.112,4.047c-0.158,0.535-0.385,1.051-0.687,1.522
							C229.554,25.709,229.196,25.47,228.886,25.168z"/>
						<path style="fill:#49A199;" d="M227.072,29.997c-0.462-0.45-0.803-0.998-1.063-1.587c-0.062-0.174-0.119-0.348-0.174-0.52
							c-0.409-1.278-0.482-2.696-0.15-4.022c0.188-0.751,0.507-1.456,0.949-2.101c0.052-0.076,0.133-0.078,0.201-0.021
							c0.991,0.835,1.55,2.166,1.872,3.395c0.347,1.327,0.388,2.689,0.112,4.048c-0.158,0.535-0.385,1.051-0.687,1.522
							C227.74,30.538,227.382,30.299,227.072,29.997z"/>
						<path style="fill:#D8804E;" d="M225.567,34.47c-0.543-0.349-0.986-0.818-1.358-1.343c-0.095-0.158-0.186-0.318-0.274-0.475
							c-0.655-1.171-1.009-2.546-0.947-3.912c0.035-0.773,0.207-1.528,0.512-2.248c0.036-0.085,0.115-0.103,0.193-0.06
							c1.137,0.621,1.95,1.814,2.51,2.955c0.604,1.231,0.915,2.558,0.915,3.945c-0.048,0.555-0.169,1.106-0.37,1.628
							C226.329,34.867,225.932,34.704,225.567,34.47z"/>
						<path style="fill:#49A199;" d="M224.505,38.91c-0.596-0.247-1.115-0.63-1.574-1.081c-0.122-0.139-0.239-0.28-0.354-0.419
							c-0.852-1.036-1.444-2.327-1.625-3.682c-0.102-0.767-0.067-1.54,0.106-2.303c0.021-0.09,0.095-0.122,0.179-0.094
							c1.229,0.41,2.241,1.44,2.994,2.463c0.813,1.104,1.354,2.355,1.599,3.72c0.051,0.555,0.03,1.119-0.076,1.668
							C225.326,39.166,224.905,39.076,224.505,38.91z"/>
						<path style="fill:#D8804E;" d="M223.725,44.604c-0.708-0.278-1.327-0.704-1.876-1.203c-0.146-0.153-0.287-0.309-0.424-0.463
							c-1.022-1.145-1.74-2.563-1.972-4.047c-0.132-0.84-0.1-1.684,0.094-2.516c0.023-0.098,0.11-0.132,0.211-0.1
							c1.459,0.465,2.669,1.604,3.573,2.733c0.976,1.219,1.633,2.593,1.942,4.088c0.068,0.608,0.051,1.224-0.067,1.822
							C224.698,44.895,224.199,44.791,223.725,44.604z"/>
						<path style="fill:#49A199;" d="M223.28,49.396c-0.687-0.181-1.311-0.522-1.879-0.946c-0.153-0.133-0.303-0.27-0.449-0.405
							c-1.085-1.004-1.923-2.324-2.322-3.776c-0.226-0.822-0.303-1.671-0.227-2.529c0.009-0.102,0.085-0.147,0.182-0.129
							c1.402,0.264,2.66,1.238,3.634,2.242c1.051,1.084,1.828,2.369,2.299,3.821c0.138,0.598,0.2,1.217,0.166,1.831
							C224.213,49.553,223.741,49.517,223.28,49.396z"/>
						<path style="fill:#D8804E;" d="M222.789,54.246c-0.687-0.181-1.311-0.522-1.879-0.946c-0.153-0.133-0.303-0.27-0.449-0.405
							c-1.085-1.004-1.923-2.324-2.322-3.776c-0.226-0.822-0.303-1.671-0.228-2.529c0.009-0.102,0.085-0.147,0.182-0.129
							c1.402,0.264,2.66,1.238,3.634,2.242c1.051,1.084,1.828,2.369,2.299,3.822c0.138,0.598,0.2,1.217,0.166,1.831
							C223.723,54.403,223.25,54.367,222.789,54.246z"/>
						<path style="fill:#49A199;" d="M223.067,59.332c-0.705-0.083-1.371-0.334-1.993-0.675c-0.17-0.111-0.338-0.225-0.501-0.338
							c-1.214-0.843-2.228-2.034-2.826-3.416c-0.338-0.782-0.532-1.612-0.577-2.472c-0.005-0.102,0.064-0.157,0.162-0.153
							c1.426,0.066,2.806,0.855,3.911,1.714c1.192,0.927,2.141,2.091,2.809,3.464c0.22,0.573,0.367,1.177,0.419,1.79
							C224.013,59.357,223.54,59.388,223.067,59.332z"/>
						<path style="fill:#D8804E;" d="M222.839,63.778c-0.706-0.083-1.371-0.334-1.993-0.675c-0.17-0.111-0.337-0.225-0.501-0.338
							c-1.214-0.843-2.228-2.034-2.826-3.416c-0.338-0.783-0.532-1.612-0.577-2.472c-0.005-0.102,0.064-0.157,0.162-0.153
							c1.426,0.066,2.806,0.855,3.911,1.714c1.192,0.927,2.14,2.091,2.809,3.464c0.22,0.573,0.367,1.177,0.419,1.79
							C223.786,63.804,223.313,63.834,222.839,63.778z"/>
						<path style="fill:#49A199;" d="M223.546,69.958c-0.732-0.098-1.424-0.379-2.072-0.759c-0.178-0.123-0.352-0.25-0.522-0.377
							c-1.266-0.939-2.327-2.258-2.958-3.785c-0.357-0.864-0.566-1.78-0.62-2.727c-0.006-0.112,0.065-0.173,0.167-0.167
							c1.479,0.085,2.917,0.965,4.07,1.921c1.244,1.031,2.237,2.32,2.942,3.838c0.233,0.633,0.391,1.299,0.45,1.975
							C224.527,69.994,224.038,70.024,223.546,69.958z"/>
						<path style="fill:#446B47;" d="M234.825,18.693c-2.635,2.747-4.607,5.982-6.065,9.489c-1.506,3.622-2.481,7.45-3.18,11.303
							c-0.682,3.762-1.107,7.568-1.43,11.376c-0.418,4.924-0.406,9.882-0.014,14.807c0.293,3.68,0.792,7.348,1.504,10.973
							c0.189,0.017,0.379,0.031,0.568,0.05c-0.134-0.654-0.263-1.308-0.38-1.966c-0.427-2.415-0.767-4.846-1.013-7.286
							c-0.493-4.894-0.609-9.828-0.306-14.738c0.241-3.898,0.657-7.806,1.269-11.663c0.611-3.843,1.465-7.659,2.783-11.325
							c1.275-3.547,3.027-7.011,5.457-9.913c0.292-0.348,0.6-0.683,0.913-1.012C235.018,18.698,234.909,18.606,234.825,18.693z"/>
						<path style="fill:#D8804E;" d="M226.353,68.985c0.958-0.138,1.861-0.495,2.703-0.97c0.23-0.153,0.456-0.311,0.677-0.467
							c1.642-1.163,3.008-2.778,3.805-4.63c0.452-1.049,0.707-2.155,0.758-3.295c0.006-0.135-0.089-0.206-0.222-0.196
							c-1.938,0.143-3.808,1.24-5.3,2.42c-1.611,1.274-2.888,2.851-3.783,4.694c-0.293,0.767-0.487,1.572-0.55,2.386
							C225.066,69.055,225.709,69.078,226.353,68.985z"/>
						<path style="fill:#49A199;" d="M226.007,63.259c0.968,0.015,1.916-0.195,2.822-0.531c0.252-0.115,0.5-0.235,0.743-0.354
							c1.805-0.889,3.409-2.268,4.489-3.971c0.611-0.964,1.038-2.016,1.269-3.134c0.027-0.132-0.055-0.217-0.188-0.229
							c-1.936-0.165-3.956,0.623-5.616,1.552c-1.792,1.003-3.302,2.358-4.477,4.036c-0.411,0.711-0.729,1.475-0.921,2.269
							C224.725,63.125,225.357,63.249,226.007,63.259z"/>
						<path style="fill:#D8804E;" d="M225.742,57.749c0.83,0.069,1.652-0.062,2.443-0.307c0.221-0.087,0.439-0.179,0.652-0.27
							c1.585-0.682,3.019-1.807,4.017-3.249c0.565-0.816,0.975-1.721,1.22-2.695c0.029-0.115-0.038-0.195-0.152-0.213
							c-1.654-0.257-3.419,0.323-4.883,1.049c-1.579,0.783-2.931,1.893-4.009,3.308c-0.382,0.605-0.687,1.261-0.884,1.951
							C224.648,57.557,225.185,57.703,225.742,57.749z"/>
						<path style="fill:#49A199;" d="M225.994,53.66c0.83-0.042,1.627-0.281,2.379-0.63c0.208-0.116,0.411-0.236,0.611-0.355
							c1.483-0.888,2.761-2.197,3.568-3.763c0.457-0.886,0.749-1.84,0.87-2.84c0.014-0.118-0.062-0.189-0.177-0.191
							c-1.669-0.035-3.343,0.776-4.7,1.691c-1.465,0.988-2.664,2.271-3.553,3.821c-0.302,0.652-0.522,1.345-0.631,2.057
							C224.888,53.615,225.437,53.688,225.994,53.66z"/>
						<path style="fill:#D8804E;" d="M226.257,48.667c0.83-0.042,1.626-0.281,2.379-0.63c0.208-0.116,0.412-0.236,0.611-0.355
							c1.483-0.888,2.761-2.197,3.568-3.763c0.457-0.886,0.749-1.84,0.87-2.84c0.014-0.118-0.062-0.189-0.177-0.191
							c-1.669-0.035-3.343,0.776-4.7,1.691c-1.465,0.988-2.664,2.271-3.553,3.821c-0.302,0.652-0.522,1.345-0.631,2.057
							C225.15,48.621,225.7,48.694,226.257,48.667z"/>
						<path style="fill:#49A199;" d="M226.96,43.553c0.83-0.042,1.627-0.281,2.379-0.63c0.208-0.116,0.412-0.236,0.611-0.355
							c1.484-0.888,2.761-2.197,3.568-3.763c0.457-0.886,0.749-1.84,0.87-2.84c0.014-0.119-0.062-0.189-0.177-0.191
							c-1.669-0.036-3.343,0.776-4.7,1.691c-1.465,0.988-2.664,2.271-3.553,3.821c-0.302,0.652-0.522,1.344-0.631,2.056
							C225.853,43.508,226.402,43.581,226.96,43.553z"/>
						<path style="fill:#D8804E;" d="M227.542,39.713c0.83-0.042,1.626-0.281,2.379-0.63c0.208-0.116,0.412-0.236,0.611-0.355
							c1.483-0.888,2.761-2.197,3.568-3.763c0.457-0.886,0.749-1.84,0.87-2.84c0.014-0.119-0.062-0.189-0.177-0.191
							c-1.669-0.035-3.343,0.776-4.7,1.691c-1.465,0.988-2.664,2.271-3.553,3.821c-0.302,0.652-0.522,1.345-0.631,2.057
							C226.436,39.668,226.985,39.741,227.542,39.713z"/>
						<path style="fill:#49A199;" d="M228.402,35.491c0.83-0.042,1.627-0.281,2.379-0.63c0.208-0.116,0.412-0.236,0.611-0.355
							c1.483-0.888,2.761-2.197,3.568-3.763c0.457-0.886,0.749-1.84,0.87-2.84c0.014-0.118-0.062-0.189-0.177-0.191
							c-1.669-0.036-3.343,0.776-4.7,1.691c-1.465,0.988-2.664,2.271-3.553,3.821c-0.302,0.652-0.522,1.345-0.631,2.057
							C227.296,35.446,227.845,35.519,228.402,35.491z"/>
						<path style="fill:#D8804E;" d="M232.26,23.49c0.606-0.406,1.097-0.945,1.506-1.544c0.104-0.18,0.203-0.361,0.3-0.541
							c0.716-1.332,1.088-2.883,0.989-4.414c-0.056-0.866-0.266-1.708-0.626-2.507c-0.043-0.095-0.132-0.112-0.219-0.062
							c-1.272,0.728-2.166,2.089-2.774,3.384c-0.657,1.397-0.981,2.894-0.951,4.45c0.066,0.622,0.214,1.237,0.452,1.816
							C231.407,23.956,231.853,23.762,232.26,23.49z"/>
						<path style="fill:#49A199;" d="M231.617,25.528c0.644-0.032,1.262-0.219,1.846-0.489c0.161-0.09,0.32-0.183,0.475-0.276
							c1.151-0.689,2.143-1.705,2.769-2.92c0.355-0.688,0.581-1.428,0.675-2.204c0.011-0.092-0.048-0.146-0.137-0.148
							c-1.295-0.028-2.595,0.602-3.648,1.313c-1.137,0.767-2.067,1.763-2.757,2.965c-0.235,0.506-0.405,1.044-0.49,1.596
							C230.758,25.493,231.185,25.55,231.617,25.528z"/>
						<path style="fill:#D8804E;" d="M229.909,30.741c0.83-0.042,1.626-0.281,2.379-0.63c0.208-0.116,0.412-0.236,0.611-0.355
							c1.483-0.888,2.761-2.197,3.568-3.763c0.457-0.886,0.749-1.84,0.87-2.84c0.014-0.118-0.062-0.189-0.177-0.191
							c-1.669-0.035-3.343,0.776-4.7,1.691c-1.465,0.988-2.664,2.271-3.553,3.821c-0.302,0.652-0.522,1.345-0.631,2.056
							C228.803,30.696,229.352,30.769,229.909,30.741z"/>
					</g>
					<g>
						<path style="fill:#D8804E;" d="M242.415,40.206c-0.253-0.411-0.4-0.87-0.481-1.345c-0.013-0.137-0.023-0.274-0.031-0.409
							c-0.063-1.001,0.143-2.043,0.627-2.943c0.274-0.51,0.634-0.963,1.072-1.349c0.052-0.046,0.111-0.032,0.149,0.022
							c0.566,0.786,0.728,1.854,0.736,2.804c0.009,1.025-0.211,2.02-0.659,2.955c-0.212,0.359-0.472,0.692-0.776,0.978
							C242.8,40.72,242.585,40.482,242.415,40.206z"/>
						<path style="fill:#49A199;" d="M240.217,43.375c-0.253-0.411-0.4-0.87-0.481-1.345c-0.013-0.138-0.022-0.274-0.031-0.409
							c-0.063-1.001,0.143-2.042,0.627-2.943c0.274-0.51,0.633-0.963,1.072-1.349c0.052-0.046,0.111-0.032,0.15,0.022
							c0.565,0.786,0.728,1.854,0.736,2.804c0.009,1.025-0.211,2.02-0.659,2.955c-0.212,0.359-0.471,0.691-0.776,0.978
							C240.602,43.89,240.386,43.651,240.217,43.375z"/>
						<path style="fill:#D8804E;" d="M238.308,46.342c-0.329-0.352-0.565-0.773-0.739-1.222c-0.04-0.132-0.077-0.264-0.112-0.395
							c-0.261-0.969-0.266-2.03,0.029-3.009c0.167-0.554,0.429-1.07,0.782-1.536c0.042-0.055,0.102-0.054,0.151-0.008
							c0.711,0.658,1.082,1.672,1.279,2.601c0.213,1.003,0.195,2.022-0.058,3.027c-0.137,0.394-0.325,0.771-0.566,1.112
							C238.788,46.77,238.529,46.579,238.308,46.342z"/>
						<path style="fill:#49A199;" d="M236.726,49.368c-0.387-0.288-0.693-0.661-0.944-1.072c-0.063-0.123-0.122-0.247-0.18-0.369
							c-0.428-0.907-0.622-1.951-0.505-2.966c0.066-0.575,0.233-1.129,0.498-1.65c0.031-0.062,0.091-0.071,0.147-0.035
							c0.816,0.522,1.361,1.454,1.72,2.333c0.387,0.949,0.551,1.955,0.479,2.989c-0.065,0.412-0.183,0.817-0.36,1.195
							C237.274,49.703,236.986,49.561,236.726,49.368z"/>
						<path style="fill:#D8804E;" d="M235.119,53.353c-0.462-0.331-0.833-0.753-1.14-1.216c-0.077-0.138-0.151-0.277-0.223-0.413
							c-0.532-1.017-0.793-2.176-0.69-3.295c0.058-0.633,0.235-1.24,0.528-1.807c0.035-0.067,0.104-0.075,0.171-0.034
							c0.973,0.604,1.642,1.651,2.091,2.635c0.485,1.062,0.71,2.179,0.66,3.319c-0.062,0.453-0.187,0.896-0.382,1.309
							C235.772,53.742,235.429,53.575,235.119,53.353z"/>
						<path style="fill:#49A199;" d="M233.92,56.745c-0.465-0.257-0.855-0.618-1.189-1.029c-0.087-0.125-0.17-0.251-0.251-0.375
							c-0.603-0.926-0.969-2.037-0.993-3.162c-0.014-0.637,0.086-1.267,0.298-1.875c0.025-0.072,0.089-0.091,0.155-0.06
							c0.968,0.448,1.702,1.384,2.225,2.29c0.564,0.978,0.892,2.052,0.968,3.191c-0.009,0.459-0.078,0.919-0.215,1.358
							C234.568,57.03,234.232,56.918,233.92,56.745z"/>
						<path style="fill:#D8804E;" d="M232.678,60.172c-0.465-0.257-0.855-0.618-1.189-1.029c-0.087-0.125-0.17-0.251-0.251-0.375
							c-0.603-0.926-0.969-2.037-0.993-3.162c-0.014-0.637,0.086-1.267,0.298-1.875c0.025-0.072,0.089-0.091,0.155-0.06
							c0.968,0.448,1.702,1.384,2.225,2.29c0.564,0.978,0.892,2.052,0.968,3.191c-0.009,0.459-0.078,0.918-0.215,1.358
							C233.326,60.457,232.99,60.345,232.678,60.172z"/>
						<path style="fill:#49A199;" d="M231.949,63.91c-0.496-0.189-0.933-0.493-1.321-0.854c-0.103-0.111-0.204-0.225-0.301-0.337
							c-0.726-0.833-1.243-1.882-1.424-2.993c-0.102-0.629-0.091-1.266,0.033-1.898c0.015-0.075,0.075-0.102,0.146-0.081
							c1.021,0.309,1.878,1.133,2.522,1.958c0.695,0.89,1.169,1.908,1.403,3.025c0.055,0.456,0.051,0.92-0.023,1.375
							C232.63,64.101,232.282,64.037,231.949,63.91z"/>
						<path style="fill:#D8804E;" d="M230.971,67.092c-0.496-0.189-0.933-0.493-1.321-0.854c-0.103-0.112-0.204-0.225-0.301-0.337
							c-0.726-0.833-1.243-1.882-1.424-2.993c-0.102-0.629-0.091-1.266,0.033-1.898c0.015-0.075,0.075-0.102,0.145-0.081
							c1.021,0.309,1.878,1.133,2.522,1.958c0.695,0.89,1.169,1.907,1.403,3.025c0.055,0.456,0.051,0.92-0.023,1.375
							C231.653,67.284,231.304,67.219,230.971,67.092z"/>
						<path style="fill:#49A199;" d="M230.354,71.702c-0.513-0.205-0.963-0.535-1.363-0.929c-0.106-0.122-0.209-0.246-0.31-0.369
							c-0.746-0.912-1.274-2.062-1.453-3.285c-0.101-0.692-0.085-1.394,0.049-2.09c0.016-0.083,0.079-0.113,0.151-0.09
							c1.057,0.332,1.938,1.233,2.599,2.136c0.713,0.975,1.198,2.091,1.431,3.32c0.053,0.502,0.046,1.013-0.035,1.514
							C231.059,71.907,230.698,71.839,230.354,71.702z"/>
						<path style="fill:#446B47;" d="M247.905,36.598c-2.413,1.51-4.434,3.495-6.132,5.77c-1.754,2.35-3.161,4.948-4.372,7.613
							c-1.183,2.602-2.186,5.284-3.117,7.986c-1.203,3.493-2.101,7.09-2.718,10.733c-0.438,2.589-0.736,5.203-0.891,7.826
							c0.001,0,0.003,0.001,0.004,0.001c-0.003,0-0.002,0-0.004-0.001l0,0c0.003,0,0.004,0.001,0.009,0.001
							c0.072,0.008,0.145,0.011,0.218,0.013c0.06,0.002,0.119,0.005,0.178,0.008c0.017-0.325,0.033-0.649,0.057-0.974
							c0.132-1.829,0.33-3.653,0.598-5.467c0.537-3.639,1.355-7.236,2.473-10.741c0.887-2.782,1.903-5.539,3.053-8.223
							c1.145-2.675,2.462-5.285,4.088-7.702c1.573-2.339,3.476-4.53,5.769-6.189c0.275-0.199,0.56-0.386,0.847-0.567
							C248.043,36.637,247.981,36.55,247.905,36.598z"/>
						<path style="fill:#D8804E;" d="M232.566,71.509c0.72,0.075,1.44-0.019,2.137-0.209c0.195-0.069,0.388-0.142,0.577-0.215
							c1.403-0.543,2.689-1.464,3.605-2.661c0.519-0.678,0.906-1.433,1.152-2.25c0.029-0.097-0.027-0.165-0.125-0.183
							c-1.431-0.251-2.987,0.203-4.285,0.785c-1.401,0.629-2.615,1.538-3.601,2.711c-0.353,0.503-0.64,1.051-0.835,1.629
							C231.621,71.325,232.083,71.459,232.566,71.509z"/>
						<path style="fill:#49A199;" d="M233.363,67.295c0.699,0.188,1.425,0.209,2.143,0.131c0.204-0.037,0.405-0.079,0.603-0.121
							c1.471-0.315,2.886-1.021,3.981-2.058c0.62-0.587,1.121-1.272,1.493-2.04c0.044-0.091,0-0.168-0.095-0.2
							c-1.374-0.474-2.982-0.272-4.355,0.098c-1.483,0.399-2.826,1.106-3.984,2.108c-0.428,0.441-0.798,0.936-1.082,1.477
							C232.458,66.964,232.893,67.169,233.363,67.295z"/>
						<path style="fill:#D8804E;" d="M234.178,63.252c0.589,0.202,1.209,0.257,1.827,0.224c0.176-0.023,0.351-0.049,0.522-0.077
							c1.274-0.204,2.519-0.758,3.506-1.621c0.559-0.488,1.021-1.069,1.377-1.73c0.042-0.078,0.008-0.148-0.071-0.182
							c-1.152-0.489-2.538-0.391-3.732-0.132c-1.288,0.279-2.471,0.837-3.511,1.665c-0.388,0.368-0.729,0.789-0.998,1.253
							C233.42,62.913,233.783,63.116,234.178,63.252z"/>
						<path style="fill:#49A199;" d="M235.109,60.333c0.609,0.122,1.231,0.093,1.84-0.021c0.172-0.046,0.342-0.096,0.508-0.146
							c1.238-0.373,2.404-1.088,3.275-2.076c0.493-0.559,0.879-1.197,1.15-1.9c0.032-0.083-0.01-0.148-0.093-0.171
							c-1.203-0.331-2.566-0.049-3.717,0.367c-1.242,0.449-2.346,1.16-3.274,2.12c-0.338,0.417-0.624,0.879-0.833,1.376
							C234.315,60.098,234.7,60.252,235.109,60.333z"/>
						<path style="fill:#D8804E;" d="M236.212,56.761c0.609,0.122,1.231,0.093,1.84-0.021c0.172-0.046,0.342-0.096,0.508-0.146
							c1.238-0.373,2.404-1.088,3.275-2.076c0.493-0.559,0.88-1.197,1.15-1.9c0.032-0.083-0.01-0.148-0.093-0.171
							c-1.203-0.331-2.566-0.049-3.717,0.367c-1.243,0.449-2.346,1.16-3.274,2.12c-0.338,0.417-0.624,0.879-0.833,1.376
							C235.418,56.526,235.803,56.68,236.212,56.761z"/>
						<path style="fill:#49A199;" d="M237.657,53.182c0.609,0.122,1.231,0.093,1.84-0.021c0.172-0.046,0.342-0.096,0.508-0.146
							c1.238-0.373,2.404-1.088,3.275-2.076c0.493-0.559,0.88-1.197,1.15-1.9c0.032-0.083-0.01-0.148-0.093-0.171
							c-1.204-0.331-2.566-0.049-3.717,0.367c-1.242,0.448-2.346,1.16-3.274,2.12c-0.338,0.417-0.624,0.879-0.833,1.375
							C236.863,52.947,237.248,53.101,237.657,53.182z"/>
						<path style="fill:#D8804E;" d="M238.781,50.505c0.609,0.121,1.231,0.093,1.84-0.021c0.172-0.046,0.341-0.096,0.508-0.146
							c1.238-0.373,2.404-1.088,3.275-2.076c0.493-0.559,0.879-1.197,1.15-1.9c0.032-0.083-0.011-0.148-0.093-0.171
							c-1.203-0.331-2.566-0.049-3.717,0.367c-1.243,0.449-2.346,1.16-3.275,2.12c-0.338,0.417-0.624,0.879-0.833,1.376
							C237.987,50.27,238.372,50.423,238.781,50.505z"/>
						<path style="fill:#49A199;" d="M240.176,47.601c0.609,0.122,1.231,0.093,1.84-0.021c0.172-0.046,0.342-0.096,0.508-0.146
							c1.238-0.373,2.404-1.088,3.275-2.076c0.493-0.559,0.88-1.197,1.15-1.9c0.032-0.083-0.01-0.148-0.093-0.171
							c-1.203-0.331-2.566-0.049-3.717,0.367c-1.243,0.448-2.346,1.16-3.274,2.12c-0.338,0.417-0.624,0.879-0.833,1.376
							C239.383,47.366,239.767,47.52,240.176,47.601z"/>
						<path style="fill:#D8804E;" d="M245.168,39.606c0.514-0.184,0.968-0.484,1.374-0.844c0.108-0.112,0.214-0.225,0.316-0.337
							c0.762-0.835,1.316-1.892,1.524-3.019c0.118-0.638,0.12-1.287,0.005-1.932c-0.014-0.076-0.075-0.105-0.148-0.085
							c-1.055,0.295-1.952,1.118-2.63,1.946c-0.732,0.893-1.24,1.919-1.503,3.052c-0.066,0.463-0.071,0.936-0.004,1.399
							C244.464,39.788,244.823,39.729,245.168,39.606z"/>
						<path style="fill:#49A199;" d="M244.329,40.966c0.473,0.094,0.955,0.073,1.428-0.017c0.133-0.036,0.265-0.074,0.394-0.113
							c0.961-0.289,1.865-0.844,2.542-1.611c0.383-0.434,0.682-0.929,0.892-1.475c0.025-0.065-0.008-0.115-0.072-0.133
							c-0.934-0.257-1.991-0.038-2.885,0.285c-0.964,0.348-1.821,0.9-2.541,1.646c-0.263,0.324-0.484,0.682-0.647,1.068
							C243.713,40.784,244.012,40.903,244.329,40.966z"/>
						<path style="fill:#D8804E;" d="M242.137,44.434c0.609,0.121,1.231,0.093,1.84-0.022c0.172-0.046,0.342-0.096,0.508-0.146
							c1.238-0.373,2.404-1.088,3.275-2.076c0.493-0.559,0.879-1.197,1.15-1.9c0.032-0.083-0.011-0.148-0.093-0.171
							c-1.204-0.331-2.566-0.049-3.717,0.367c-1.243,0.448-2.346,1.16-3.275,2.12c-0.338,0.417-0.624,0.879-0.833,1.375
							C241.344,44.199,241.728,44.352,242.137,44.434z"/>
					</g>
					<g>
						<path style="fill:#D8804E;" d="M205.532,32.075c0.338-0.549,0.535-1.164,0.643-1.799c0.017-0.184,0.03-0.367,0.042-0.547
							c0.084-1.339-0.191-2.732-0.838-3.936c-0.366-0.682-0.847-1.288-1.434-1.805c-0.069-0.061-0.148-0.043-0.2,0.029
							c-0.756,1.052-0.973,2.479-0.985,3.75c-0.012,1.371,0.282,2.702,0.882,3.952c0.284,0.48,0.631,0.925,1.038,1.308
							C205.017,32.762,205.305,32.443,205.532,32.075z"/>
						<path style="fill:#49A199;" d="M208.472,36.313c0.338-0.549,0.535-1.164,0.643-1.799c0.017-0.184,0.03-0.367,0.041-0.547
							c0.084-1.339-0.191-2.732-0.838-3.936c-0.366-0.682-0.847-1.288-1.434-1.805c-0.07-0.061-0.148-0.043-0.2,0.029
							c-0.756,1.052-0.973,2.479-0.985,3.75c-0.012,1.371,0.282,2.702,0.882,3.952c0.284,0.48,0.631,0.925,1.038,1.308
							C207.957,37.001,208.245,36.682,208.472,36.313z"/>
						<path style="fill:#D8804E;" d="M211.024,40.282c0.441-0.471,0.756-1.034,0.988-1.634c0.053-0.177,0.103-0.354,0.149-0.528
							c0.349-1.296,0.356-2.715-0.038-4.025c-0.223-0.741-0.574-1.431-1.046-2.054c-0.056-0.074-0.136-0.072-0.202-0.011
							c-0.951,0.88-1.447,2.236-1.711,3.479c-0.285,1.341-0.262,2.704,0.078,4.048c0.183,0.527,0.434,1.032,0.757,1.488
							C210.383,40.853,210.729,40.598,211.024,40.282z"/>
						<path style="fill:#49A199;" d="M213.14,44.328c0.517-0.385,0.927-0.884,1.262-1.433c0.084-0.164,0.163-0.33,0.241-0.493
							c0.573-1.213,0.832-2.609,0.676-3.967c-0.088-0.769-0.311-1.51-0.666-2.207c-0.042-0.083-0.122-0.095-0.197-0.047
							c-1.091,0.698-1.821,1.944-2.3,3.121c-0.518,1.27-0.737,2.615-0.641,3.998c0.087,0.551,0.244,1.092,0.481,1.598
							C212.407,44.777,212.793,44.586,213.14,44.328z"/>
						<path style="fill:#D8804E;" d="M215.29,49.658c0.618-0.443,1.115-1.007,1.525-1.626c0.104-0.184,0.202-0.37,0.298-0.553
							c0.711-1.36,1.06-2.911,0.922-4.406c-0.078-0.847-0.315-1.658-0.706-2.416c-0.046-0.09-0.139-0.101-0.229-0.045
							c-1.301,0.807-2.196,2.209-2.796,3.524c-0.648,1.42-0.949,2.914-0.883,4.439c0.083,0.606,0.25,1.199,0.51,1.75
							C214.417,50.178,214.875,49.955,215.29,49.658z"/>
						<path style="fill:#49A199;" d="M216.893,54.195c0.622-0.344,1.144-0.827,1.591-1.376c0.116-0.167,0.228-0.336,0.336-0.502
							c0.806-1.239,1.296-2.724,1.328-4.229c0.018-0.852-0.115-1.694-0.398-2.508c-0.034-0.096-0.119-0.122-0.208-0.08
							c-1.295,0.599-2.276,1.851-2.975,3.063c-0.754,1.308-1.194,2.744-1.295,4.268c0.012,0.614,0.104,1.229,0.287,1.816
							C216.026,54.576,216.475,54.426,216.893,54.195z"/>
						<path style="fill:#D8804E;" d="M218.554,58.778c0.622-0.344,1.144-0.827,1.591-1.377c0.116-0.167,0.228-0.335,0.336-0.502
							c0.806-1.239,1.296-2.724,1.328-4.229c0.018-0.852-0.115-1.694-0.398-2.508c-0.034-0.096-0.119-0.122-0.208-0.08
							c-1.295,0.599-2.276,1.85-2.975,3.063c-0.754,1.309-1.193,2.744-1.295,4.268c0.012,0.614,0.104,1.229,0.287,1.816
							C217.688,59.159,218.137,59.009,218.554,58.778z"/>
						<path style="fill:#49A199;" d="M219.529,63.777c0.664-0.253,1.248-0.659,1.767-1.141c0.138-0.149,0.272-0.301,0.403-0.451
							c0.971-1.115,1.663-2.517,1.904-4.003c0.137-0.841,0.122-1.694-0.045-2.539c-0.02-0.1-0.101-0.137-0.195-0.109
							c-1.366,0.413-2.512,1.516-3.373,2.619c-0.929,1.191-1.564,2.551-1.877,4.046c-0.073,0.61-0.068,1.231,0.031,1.839
							C218.618,64.033,219.084,63.947,219.529,63.777z"/>
						<path style="fill:#D8804E;" d="M220.837,68.034c0.664-0.254,1.248-0.659,1.767-1.142c0.138-0.149,0.272-0.301,0.403-0.451
							c0.971-1.115,1.663-2.517,1.904-4.003c0.137-0.841,0.122-1.694-0.045-2.539c-0.02-0.1-0.101-0.137-0.195-0.108
							c-1.366,0.413-2.512,1.515-3.373,2.619c-0.929,1.191-1.564,2.551-1.877,4.046c-0.073,0.61-0.068,1.231,0.031,1.839
							C219.926,68.29,220.392,68.204,220.837,68.034z"/>
						<path style="fill:#49A199;" d="M221.663,74.199c0.686-0.274,1.288-0.716,1.823-1.243c0.142-0.163,0.28-0.329,0.414-0.493
							c0.998-1.22,1.704-2.758,1.943-4.393c0.135-0.925,0.113-1.864-0.066-2.796c-0.021-0.11-0.105-0.151-0.202-0.121
							c-1.413,0.444-2.593,1.649-3.477,2.857c-0.954,1.304-1.602,2.797-1.914,4.441c-0.071,0.671-0.061,1.355,0.047,2.025
							C220.72,74.474,221.203,74.383,221.663,74.199z"/>
						<path style="fill:#446B47;" d="M220.913,76.659c-0.219-2.168-0.508-4.329-0.871-6.476c-0.825-4.871-2.025-9.682-3.635-14.354
							c-1.245-3.613-2.587-7.2-4.169-10.681c-1.62-3.565-3.502-7.039-5.848-10.182c-2.271-3.043-4.973-5.698-8.201-7.717
							c-0.103-0.064-0.185,0.052-0.082,0.117c0.384,0.243,0.765,0.492,1.133,0.758c3.066,2.22,5.612,5.15,7.716,8.278
							c2.175,3.233,3.936,6.723,5.468,10.301c1.538,3.59,2.896,7.277,4.083,10.998c1.495,4.687,2.589,9.499,3.308,14.365
							c0.222,1.504,0.405,3.014,0.556,4.528C220.549,76.632,220.73,76.654,220.913,76.659z"/>
						<path style="fill:#D8804E;" d="M218.704,73.941c-0.963,0.101-1.926-0.025-2.858-0.28c-0.261-0.092-0.519-0.19-0.771-0.287
							c-1.876-0.726-3.596-1.958-4.822-3.559c-0.694-0.906-1.212-1.917-1.541-3.009c-0.039-0.13,0.036-0.221,0.167-0.244
							c1.914-0.336,3.995,0.271,5.731,1.05c1.874,0.841,3.498,2.058,4.816,3.626c0.472,0.672,0.856,1.405,1.117,2.179
							C219.969,73.695,219.35,73.874,218.704,73.941z"/>
						<path style="fill:#49A199;" d="M217.639,68.305c-0.935,0.252-1.905,0.279-2.866,0.176c-0.272-0.05-0.542-0.105-0.807-0.162
							c-1.967-0.421-3.86-1.365-5.324-2.752c-0.829-0.785-1.5-1.701-1.997-2.728c-0.059-0.122,0-0.224,0.127-0.268
							c1.837-0.634,3.988-0.363,5.825,0.132c1.983,0.534,3.779,1.479,5.328,2.819c0.572,0.589,1.068,1.252,1.448,1.975
							C218.849,67.862,218.266,68.136,217.639,68.305z"/>
						<path style="fill:#D8804E;" d="M216.548,62.897c-0.788,0.27-1.617,0.344-2.444,0.3c-0.236-0.03-0.469-0.066-0.698-0.103
							c-1.704-0.273-3.369-1.014-4.69-2.168c-0.747-0.654-1.366-1.43-1.842-2.315c-0.056-0.105-0.011-0.198,0.095-0.243
							c1.541-0.654,3.395-0.523,4.991-0.177c1.723,0.373,3.305,1.119,4.696,2.227c0.518,0.493,0.974,1.055,1.335,1.676
							C217.562,62.444,217.077,62.716,216.548,62.897z"/>
						<path style="fill:#49A199;" d="M215.304,58.994c-0.815,0.163-1.646,0.125-2.461-0.029c-0.23-0.062-0.457-0.128-0.68-0.195
							c-1.656-0.499-3.215-1.455-4.38-2.776c-0.66-0.748-1.176-1.601-1.538-2.541c-0.043-0.111,0.014-0.198,0.125-0.229
							c1.609-0.443,3.431-0.065,4.971,0.491c1.662,0.6,3.138,1.551,4.379,2.836c0.453,0.558,0.835,1.176,1.115,1.84
							C216.365,58.68,215.851,58.885,215.304,58.994z"/>
						<path style="fill:#D8804E;" d="M213.828,54.216c-0.815,0.163-1.646,0.125-2.461-0.029c-0.23-0.062-0.457-0.128-0.68-0.195
							c-1.656-0.499-3.215-1.455-4.38-2.776c-0.66-0.748-1.176-1.601-1.538-2.541c-0.043-0.111,0.014-0.198,0.125-0.229
							c1.609-0.443,3.431-0.065,4.971,0.491c1.662,0.6,3.138,1.551,4.379,2.836c0.453,0.558,0.835,1.176,1.115,1.84
							C214.89,53.902,214.375,54.107,213.828,54.216z"/>
						<path style="fill:#49A199;" d="M211.896,49.43c-0.815,0.163-1.646,0.125-2.461-0.029c-0.23-0.062-0.457-0.128-0.68-0.195
							c-1.656-0.499-3.215-1.455-4.38-2.776c-0.66-0.748-1.176-1.601-1.538-2.541c-0.043-0.111,0.014-0.198,0.125-0.229
							c1.609-0.443,3.431-0.065,4.971,0.491c1.662,0.6,3.138,1.551,4.379,2.836c0.453,0.558,0.835,1.176,1.115,1.84
							C212.958,49.116,212.443,49.321,211.896,49.43z"/>
						<path style="fill:#D8804E;" d="M210.392,45.849c-0.815,0.163-1.646,0.125-2.461-0.029c-0.23-0.062-0.457-0.128-0.68-0.195
							c-1.656-0.499-3.215-1.455-4.38-2.776c-0.66-0.748-1.176-1.601-1.538-2.541c-0.043-0.111,0.014-0.198,0.125-0.229
							c1.61-0.443,3.431-0.065,4.971,0.491c1.662,0.6,3.138,1.551,4.38,2.836c0.452,0.558,0.835,1.176,1.115,1.84
							C211.454,45.534,210.939,45.74,210.392,45.849z"/>
						<path style="fill:#49A199;" d="M208.526,41.965c-0.815,0.163-1.646,0.125-2.461-0.029c-0.23-0.062-0.457-0.128-0.68-0.195
							c-1.656-0.498-3.215-1.455-4.38-2.776c-0.66-0.748-1.176-1.601-1.538-2.541c-0.043-0.111,0.014-0.198,0.125-0.229
							c1.61-0.443,3.431-0.065,4.971,0.491c1.662,0.6,3.138,1.551,4.38,2.836c0.452,0.558,0.835,1.176,1.115,1.84
							C209.587,41.651,209.073,41.856,208.526,41.965z"/>
						<path style="fill:#D8804E;" d="M201.85,31.272c-0.687-0.246-1.295-0.648-1.838-1.129c-0.145-0.149-0.286-0.301-0.423-0.451
							c-1.02-1.116-1.76-2.53-2.038-4.038c-0.158-0.854-0.16-1.721-0.006-2.584c0.018-0.102,0.1-0.141,0.197-0.114
							c1.411,0.395,2.611,1.496,3.518,2.602c0.979,1.194,1.659,2.567,2.011,4.082c0.088,0.619,0.095,1.251,0.006,1.871
							C202.791,31.516,202.311,31.437,201.85,31.272z"/>
						<path style="fill:#49A199;" d="M202.972,33.091c-0.633,0.126-1.277,0.097-1.91-0.022c-0.178-0.048-0.355-0.099-0.527-0.151
							c-1.285-0.387-2.495-1.129-3.399-2.155c-0.512-0.58-0.913-1.242-1.193-1.972c-0.033-0.087,0.011-0.154,0.097-0.177
							c1.249-0.344,2.663-0.051,3.858,0.381c1.29,0.465,2.436,1.204,3.399,2.201c0.351,0.433,0.648,0.913,0.865,1.428
							C203.796,32.847,203.396,33.007,202.972,33.091z"/>
						<path style="fill:#D8804E;" d="M205.903,37.728c-0.815,0.163-1.646,0.125-2.461-0.029c-0.23-0.062-0.457-0.128-0.68-0.195
							c-1.656-0.499-3.215-1.455-4.38-2.776c-0.66-0.748-1.176-1.601-1.538-2.541c-0.043-0.111,0.014-0.198,0.125-0.229
							c1.61-0.443,3.431-0.065,4.971,0.49c1.662,0.6,3.138,1.551,4.379,2.836c0.452,0.558,0.835,1.176,1.115,1.84
							C206.965,37.414,206.45,37.619,205.903,37.728z"/>
					</g>
				</g>
			</g>
		</g>
		<g>
			<rect x="17.637" y="5.167" style="fill:#816549;" width="74.048" height="94.633"/>
			<rect x="23.938" y="9.781" style="fill:#D3EAD9;" width="61.445" height="85.406"/>
			<g>
				<g>
					<path style="fill:#FFFFFF;" d="M63.853,60.108c-1.174-4.581,2.375-6.696,2.375-6.696s-6.309-0.031-9.67-0.047l0-0.009
						c-0.036,0-0.421,0.002-1.025,0.005c-0.604-0.003-0.99-0.005-1.025-0.005l0,0.009c-3.361,0.016-9.67,0.047-9.67,0.047
						s3.549,2.115,2.375,6.696c-1.174,4.581-6.182,6.311-5.205,17.712c0.977,11.401,7.798,15.982,7.798,15.982h0.03
						c0,0.188,2.398,0.34,5.356,0.34c0.115,0,0.228-0.001,0.341-0.001c0.113,0,0.226,0.001,0.341,0.001
						c2.958,0,5.356-0.152,5.356-0.34h0.03c0,0,6.82-4.581,7.798-15.982C70.035,66.419,65.026,64.688,63.853,60.108z"/>
					<g>
						<path style="fill:#D6DBDA;" d="M63.853,60.108c-1.174-4.581,2.375-6.696,2.375-6.696s-6.309-0.031-9.67-0.047l0-0.009
							c-0.036,0-0.421,0.002-1.025,0.005c-0.604-0.003-0.99-0.005-1.025-0.005l0,0.009c-0.014,0-0.029,0-0.043,0
							c3.371,0.016,9.627,0.047,9.627,0.047s-3.549,2.115-2.375,6.696c1.174,4.581,6.182,6.311,5.205,17.712
							c-0.977,11.401-7.798,15.982-7.798,15.982h-0.03c0,0.172-2.016,0.313-4.629,0.336c0.239,0.002,0.48,0.004,0.728,0.004
							c0.115,0,0.228-0.001,0.341-0.001c0.113,0,0.226,0.001,0.341,0.001c2.958,0,5.356-0.152,5.356-0.34h0.03
							c0,0,6.82-4.581,7.798-15.982C70.035,66.419,65.026,64.688,63.853,60.108z"/>
					</g>
					<ellipse style="fill:#838788;" cx="55.549" cy="53.355" rx="10.712" ry="0.679"/>
				</g>
				<path style="fill:#436A46;" d="M52.469,30.592v23.405c0.308,0.063,0.621,0.094,0.936,0.105l0.547-23.51H52.469z"/>
				<path style="fill:#507A52;" d="M53.991,30.592l1.465,23.451c0.311,0.024,0.625,0.013,0.938,0.002l-0.918-23.452H53.991z"/>
				<path style="fill:#436A46;" d="M56.536,30.592l1.466,23.469c0.313-0.01,0.625-0.027,0.936-0.049L58.02,30.592H56.536z"/>
				<g>
					<g>
						<path style="fill:#49A199;" d="M35.607,49.853c2.677-0.408,5.396-0.311,8.081-0.649c3.304-0.416,6.674-1.294,9.443-3.211
							c2.614-1.81,4.784-4.372,5.897-7.369c0.402-1.082,0.663-2.214,0.764-3.362c-0.003-0.165-0.007-0.329-0.017-0.493
							c-0.082-1.429-0.436-2.916-1.355-4.049c-1.055-1.3-2.776-1.968-4.422-1.996c-1.644-0.028-3.255,0.52-4.692,1.296
							c0.086-0.312,0.203-0.616,0.212-0.945c0.011-0.443-0.109-0.865-0.3-1.261c-0.362-0.75-0.924-1.44-1.621-1.9
							c-1.319-0.871-3.023-0.977-4.537-0.673c-2.889,0.581-5.442,2.363-7.267,4.636c-1.846,2.299-3.039,5.06-3.876,7.868
							c-0.419,1.408-0.753,2.84-1.027,4.282c-0.373,1.967-0.584,3.949-0.711,5.947c-0.05,0.789-0.061,1.584-0.161,2.369
							c-0.073,0.572-0.157,1.155-0.134,1.733c0.002,0.047,0.006,0.1,0.01,0.155C31.372,50.76,33.604,50.158,35.607,49.853z"/>
					</g>
					<g>
						<path style="fill:#49A199;" d="M45.875,28.068c1.194,1.427,2.573,2.703,4.077,3.797c1.528,1.111,3.194,2.047,4.959,2.728
							c1.545,0.596,3.174,0.998,4.828,1.115c0.018-0.149,0.042-0.297,0.055-0.446c-0.003-0.165-0.007-0.329-0.017-0.493
							c-0.082-1.429-0.436-2.916-1.355-4.049c-1.055-1.3-2.776-1.968-4.422-1.996c-1.644-0.028-3.255,0.52-4.692,1.296
							c0.086-0.312,0.203-0.616,0.212-0.945c0.011-0.443-0.109-0.865-0.3-1.261c-0.362-0.75-0.924-1.44-1.621-1.9
							c-1.095-0.723-2.456-0.918-3.753-0.789C44.421,26.169,45.111,27.155,45.875,28.068z"/>
						<path style="fill:#49A199;" d="M56.37,37.313c-1.278,0.031-2.601,0.411-3.558,1.289c-0.963,0.884-1.383,2.129-1.352,3.417
							c0.033,1.348,0.487,2.673,1.102,3.861c0.063,0.121,0.128,0.241,0.195,0.36c0.125-0.081,0.251-0.162,0.375-0.247
							c2.614-1.81,4.784-4.372,5.897-7.369c0.076-0.206,0.147-0.414,0.213-0.623C58.404,37.477,57.342,37.29,56.37,37.313z"/>
					</g>
					<g>
						<path style="fill:#D8804E;" d="M69.023,35.593c-2.677-0.408-5.396-0.311-8.081-0.649c-3.304-0.416-6.674-1.294-9.443-3.211
							c-2.614-1.81-4.784-4.372-5.897-7.369c-0.402-1.082-0.663-2.214-0.764-3.362c0.003-0.165,0.007-0.329,0.017-0.493
							c0.081-1.429,0.436-2.916,1.355-4.049c1.055-1.3,2.776-1.968,4.422-1.996c1.644-0.028,3.255,0.52,4.692,1.296
							c-0.086-0.312-0.203-0.616-0.212-0.945c-0.011-0.443,0.109-0.865,0.3-1.261c0.362-0.75,0.924-1.44,1.621-1.9
							c1.319-0.871,3.023-0.977,4.537-0.673c2.889,0.581,5.442,2.363,7.267,4.636c1.846,2.299,3.039,5.06,3.876,7.868
							c0.419,1.408,0.753,2.84,1.027,4.282c0.373,1.967,0.584,3.949,0.711,5.947c0.05,0.789,0.061,1.584,0.161,2.369
							c0.074,0.572,0.157,1.155,0.134,1.733c-0.002,0.047-0.006,0.1-0.011,0.155C73.258,36.501,71.026,35.899,69.023,35.593z"/>
					</g>
					<g>
						<path style="fill:#D8804E;" d="M70.869,54.139c-2.036-0.311-4.105-0.237-6.148-0.494c-2.513-0.316-5.077-0.985-7.184-2.443
							c-1.989-1.377-3.64-3.326-4.487-5.606c-0.306-0.823-0.505-1.685-0.581-2.558c0.002-0.125,0.006-0.25,0.013-0.375
							c0.062-1.087,0.332-2.218,1.031-3.08c0.802-0.989,2.112-1.497,3.364-1.519c1.251-0.021,2.476,0.395,3.569,0.986
							c-0.065-0.237-0.155-0.469-0.161-0.719c-0.009-0.337,0.083-0.658,0.228-0.96c0.275-0.57,0.703-1.096,1.234-1.446
							c1.003-0.663,2.3-0.743,3.452-0.512c2.198,0.442,4.14,1.798,5.528,3.527c1.404,1.749,2.312,3.849,2.949,5.986
							c0.319,1.071,0.573,2.16,0.781,3.258c0.284,1.497,0.445,3.005,0.541,4.524c0.038,0.6,0.046,1.205,0.123,1.802
							c0.056,0.435,0.119,0.879,0.102,1.319c-0.002,0.036-0.004,0.076-0.008,0.118C74.092,54.83,72.394,54.371,70.869,54.139z"/>
					</g>
				</g>
			</g>
		</g>
		<g>
			<rect x="101.656" y="5.167" style="fill:#816549;" width="74.048" height="94.633"/>
			<rect x="107.957" y="9.781" style="fill:#D3EAD9;" width="61.445" height="85.406"/>
			<g>
				<path style="fill:#D6DBDA;" d="M163.64,71.716c-0.245-0.986-0.515-1.961-0.678-2.964c-0.148-0.912-0.226-1.834-0.221-2.757
					c0.005-0.911,0.088-1.821,0.223-2.722c0.143-0.955,0.374-1.892,0.54-2.843c0.319-1.835,0.391-3.708,0.276-5.563
					c-0.01-0.166-0.024-0.333-0.037-0.5c-0.091-0.68-0.202-1.358-0.343-2.03c-0.48-2.296-1.252-4.514-2.412-6.578
					c-1.17-2.082-3.201-4.864-5.755-5.529c0.453-0.992,0.867-2,1.221-3.03c1.206-3.508,1.723-7.241,1.086-10.905
					c-0.545-3.133-2.618-6.357-6.18-6.766c-1.779-0.204-3.547,0.403-5.084,1.212c-1.701,0.896-3.222,2.055-4.533,3.423
					c-0.345,0.36-0.67,0.733-0.981,1.114c-0.121,0.148-0.231,0.303-0.348,0.453c-0.184,0.238-0.372,0.473-0.548,0.716
					c-0.132,0.182-0.257,0.368-0.386,0.553c-0.153,0.219-0.309,0.437-0.459,0.659c-0.192,0.284-0.382,0.571-0.573,0.858
					c-0.074,0.112-0.149,0.222-0.223,0.334c0,0,0,0,0,0c-0.011,0.017-0.022,0.033-0.033,0.05c-0.109,0.163-0.219,0.326-0.328,0.488
					c0.106-1.26,0.217-2.545,0.102-3.81c0.087-0.983,0.057-1.974-0.11-2.97c-0.56-3.334-2.718-6.675-6.058-8.036
					c-5.392-2.197-9.759,3.488-11.949,7.386c-1.607,2.861-2.678,5.936-3.344,9.119c-0.195,0.932-0.349,1.872-0.476,2.814
					c-0.018,0.231-0.037,0.463-0.052,0.693c-0.159,2.572-0.059,5.168,0.383,7.712c0.229,1.318,0.55,2.618,0.748,3.941
					c0.187,1.25,0.302,2.511,0.309,3.774c0.007,1.28-0.1,2.558-0.306,3.822c-0.226,1.391-0.601,2.742-0.94,4.109
					c-0.644,2.595-0.944,5.248-0.79,7.914c0.079,1.359,0.268,2.711,0.52,4.051c0.281,1.495,0.647,2.968,0.842,4.478
					c0.475,3.675,0.713,7.372,1.185,11.051c0.164,1.276,0.942,2.373,2.396,2.417c0,0.002-0.001,0.003-0.001,0.005
					c0.033,0.001,0.065,0.004,0.099,0.004h0l0,0l0,0c0.135,0,0.271-0.011,0.404-0.035c0.133-0.024,0.262-0.062,0.384-0.117
					c2.319-1.049,4.457-2.966,6.307-4.769c0.264-0.257,0.523-0.513,0.775-0.763c1.483-1.47,2.746-3.124,4.139-4.669
					c2.525-2.801,5.299-5.417,7.143-8.708c0.311-0.555,0.587-1.126,0.849-1.704c0.1,0.142,0.199,0.285,0.299,0.427
					c0.855,1.203,1.745,2.382,2.433,3.684c0.703,1.332,1.251,2.73,1.79,4.128c0.547,1.42,1.061,2.874,1.81,4.211
					c1.33,2.374,3.331,4.261,5.153,6.282c1.005,1.114,1.916,2.308,2.985,3.368c1.456,1.443,3.197,3.126,5.109,3.991
					c0.176,0.08,0.373,0.109,0.568,0.11c1.097,0.004,1.679-0.808,1.799-1.75c0.34-2.654,0.512-5.321,0.855-7.972
					c0.141-1.089,0.405-2.152,0.607-3.23c0.182-0.966,0.318-1.941,0.375-2.922C164.321,75.502,164.105,73.588,163.64,71.716z"/>
			</g>
			<g>
				<path style="fill:#D8804E;" d="M155.71,23.878c-0.521-3.133-2.505-6.357-5.912-6.766c-1.702-0.204-3.393,0.403-4.863,1.212
					c-1.627,0.895-3.083,2.055-4.336,3.423c-1.327,1.448-2.347,3.088-3.396,4.737c-0.104,0.163-0.209,0.326-0.314,0.488
					c0.102-1.26,0.208-2.545,0.098-3.81c0.084-0.983,0.055-1.974-0.105-2.97c-0.536-3.334-2.6-6.675-5.796-8.036
					c-5.158-2.197-9.336,3.488-11.431,7.386c-1.538,2.861-2.562,5.936-3.199,9.119c-0.186,0.932-0.334,1.872-0.455,2.814
					c-0.018,0.231-0.036,0.462-0.049,0.693c-0.152,2.572-0.056,5.168,0.366,7.712c0.219,1.318,0.526,2.618,0.716,3.941
					c0.179,1.25,0.289,2.511,0.296,3.774c0.007,1.279-0.096,2.558-0.292,3.822c-0.216,1.391-0.575,2.741-0.899,4.109
					c-0.616,2.595-0.903,5.248-0.756,7.914c0.075,1.359,0.257,2.711,0.498,4.051c0.269,1.495,0.619,2.968,0.805,4.478
					c0.455,3.675,0.682,7.372,1.134,11.051c0.16,1.306,0.931,2.432,2.386,2.426c0.258-0.001,0.52-0.042,0.754-0.153
					c2.535-1.199,4.844-3.532,6.775-5.532c1.419-1.47,2.627-3.124,3.959-4.669c2.416-2.801,5.069-5.417,6.833-8.708
					c0.994-1.854,1.675-3.869,2.4-5.838c0.714-1.938,1.441-3.877,2.373-5.723c0.912-1.806,2.092-3.439,3.226-5.108
					c1.073-1.577,2.134-3.163,3.142-4.782c1.995-3.202,3.82-6.557,5.003-10.152C155.826,31.275,156.32,27.542,155.71,23.878z"/>
				<path style="fill:#49A199;" d="M155.71,23.878c-0.521-3.133-2.505-6.357-5.912-6.766c-1.702-0.204-3.393,0.403-4.863,1.212
					c-1.627,0.895-3.083,2.055-4.336,3.423c-1.314,1.433-2.326,3.055-3.364,4.687c-0.177,0.523-0.372,1.042-0.582,1.556
					c-0.882,2.151-2.017,4.198-2.786,6.394c-1.644,4.692-2.175,9.662-2.947,14.547c-0.381,2.407-0.827,4.802-1.468,7.154
					c-0.658,2.415-1.547,4.758-2.499,7.07c-0.96,2.33-1.985,4.632-2.911,6.976c-0.921,2.333-1.693,4.704-2.314,7.134
					c-0.69,2.696-1.226,5.426-1.616,8.177c0.032,0.001,0.062,0.004,0.095,0.004c0.258-0.001,0.52-0.042,0.754-0.153
					c2.535-1.199,4.844-3.532,6.775-5.532c1.419-1.47,2.627-3.124,3.959-4.669c2.416-2.801,5.069-5.417,6.833-8.708
					c0.994-1.854,1.675-3.869,2.4-5.838c0.714-1.938,1.441-3.877,2.373-5.723c0.912-1.806,2.092-3.439,3.226-5.108
					c1.073-1.577,2.134-3.163,3.142-4.782c1.995-3.202,3.82-6.557,5.003-10.152C155.826,31.275,156.32,27.542,155.71,23.878z"/>
			</g>
			<g>
				<g>
					<path style="fill:#D8804E;" d="M133,46.468c0.376-2.26,1.807-4.585,4.265-4.88c1.227-0.147,2.447,0.291,3.508,0.875
						c1.174,0.646,2.224,1.483,3.128,2.469c0.957,1.044,1.693,2.227,2.45,3.417c0.075,0.118,0.151,0.235,0.226,0.352
						c-0.073-0.909-0.15-1.836-0.071-2.749c-0.06-0.709-0.039-1.424,0.076-2.142c0.387-2.405,1.876-4.815,4.181-5.797
						c3.721-1.585,6.734,2.516,8.246,5.328c1.109,2.064,1.848,4.282,2.307,6.578c0.134,0.672,0.241,1.35,0.328,2.03
						c0.013,0.167,0.026,0.334,0.036,0.5c0.11,1.855,0.041,3.728-0.264,5.563c-0.158,0.951-0.379,1.888-0.516,2.843
						c-0.129,0.902-0.209,1.811-0.213,2.722c-0.005,0.923,0.069,1.845,0.211,2.757c0.156,1.003,0.415,1.978,0.649,2.964
						c0.444,1.872,0.652,3.786,0.545,5.709c-0.054,0.981-0.185,1.956-0.359,2.922c-0.194,1.079-0.446,2.141-0.581,3.23
						c-0.328,2.651-0.492,5.318-0.818,7.972c-0.116,0.942-0.671,1.754-1.721,1.75c-0.186-0.001-0.375-0.03-0.544-0.11
						c-1.829-0.865-3.494-2.548-4.887-3.99c-1.023-1.06-1.895-2.254-2.856-3.368c-1.743-2.021-3.657-3.908-4.929-6.282
						c-0.717-1.337-1.208-2.791-1.732-4.211c-0.515-1.398-1.039-2.797-1.712-4.128c-0.658-1.302-1.509-2.481-2.327-3.684
						c-0.774-1.138-1.539-2.282-2.267-3.45c-1.439-2.31-2.756-4.73-3.609-7.323C132.916,51.804,132.56,49.112,133,46.468z"/>
				</g>
			</g>
		</g>
	</g>
	<g>
		<g>
			<g>
				<g>
					<path style="fill:#4F5153;" d="M188.924,320.989c0.052,0,0.103-0.002,0.156-0.007c0.895-0.081,1.552-0.839,1.468-1.694
						l-9.388-94.515c-0.085-0.854-0.871-1.471-1.776-1.4c-0.895,0.081-1.552,0.84-1.468,1.694l9.388,94.515
						C187.385,320.386,188.094,320.989,188.924,320.989z"/>
				</g>
				<g>
					<path style="fill:#4F5153;" d="M88.914,320.989c-0.051,0-0.103-0.002-0.156-0.007c-0.895-0.081-1.552-0.839-1.468-1.694
						l9.388-94.515c0.085-0.854,0.871-1.471,1.776-1.4c0.895,0.081,1.552,0.84,1.468,1.694l-9.388,94.515
						C90.453,320.386,89.744,320.989,88.914,320.989z"/>
				</g>
			</g>
			<path style="fill:#AFB1B4;" d="M180.516,238.679H95.494c-4.745,0-8.627-3.882-8.627-8.627v0c0-4.745,3.882-8.627,8.627-8.627
				h85.022c4.745,0,8.627,3.882,8.627,8.627v0C189.144,234.796,185.261,238.679,180.516,238.679z"/>
			<g>
				<rect x="99.984" y="192.691" style="fill:#E79A24;" width="78.53" height="28.733"/>
				<g>
					<g>
						<path style="fill:#87513C;" d="M117.741,315.484c-0.162-1.731-0.174-3.46-0.273-5.195c-0.077-1.366-0.128-2.986-0.939-4.149
							c-1.237-1.771-3.829-1.884-5.789-1.869c-1.378,0.01-3.201,0.138-4.419,1c-0.231,3.138-1.462,5.792-3.527,8.129
							c-1.096,1.241-2.284,2.409-3.35,3.684c-0.85,1.018-1.599,2.165-1.882,3.461c-0.826,3.779,3.062,6.065,6.201,6.611
							c3.858,0.672,10.172,0.784,12.624-2.843c0.727-1.076,1.306-2.927,1.428-4.195
							C117.965,318.577,117.885,317.022,117.741,315.484z"/>
						<path style="fill:#5F3726;" d="M113.447,324.685c-1.865,0.473-3.801,0.674-5.721,0.727c-1.912,0.052-3.966,0.068-5.813-0.481
							c-0.985-0.293-1.929-0.793-2.61-1.576c-0.507-0.582-0.883-1.278-1.189-1.982c-0.154-0.354-0.313-0.766-0.436-1.198
							c-0.036,0.124-0.088,0.244-0.115,0.371c-0.826,3.779,3.062,6.065,6.201,6.612c3.858,0.672,10.172,0.784,12.624-2.843
							c0.195-0.289,0.378-0.635,0.546-1.009C115.859,323.947,114.645,324.381,113.447,324.685z"/>
					</g>
					<path style="fill:#3A527E;" d="M150.025,210.131h-19.822c0,0-34.698-15.837-32.658,2.818
						c2.021,18.485,16.55,23.584,42.569,22.972c26.02,0.612,40.549-4.487,42.569-22.972
						C184.723,194.294,150.025,210.131,150.025,210.131z"/>
					<path style="fill:#4B729B;" d="M105.655,204.305c0,0-6.413-3.835-11.016,10.962c-4.603,14.797,9.62,89.494,9.62,89.494
						s0.123,3.8,5.251,4.827c0,0,5.523,0.653,8.508-2.447l-0.241-89.355C117.778,217.786,116.261,203.858,105.655,204.305z"/>
					<g>
						<path style="fill:#87513C;" d="M162.479,315.484c0.162-1.731,0.174-3.46,0.273-5.195c0.077-1.366,0.128-2.986,0.939-4.149
							c1.237-1.771,3.829-1.884,5.789-1.869c1.378,0.01,3.201,0.138,4.419,1c0.231,3.138,1.462,5.792,3.527,8.129
							c1.096,1.241,2.285,2.409,3.35,3.684c0.85,1.018,1.599,2.165,1.882,3.461c0.826,3.779-3.062,6.065-6.201,6.611
							c-3.858,0.672-10.172,0.784-12.624-2.843c-0.727-1.076-1.305-2.927-1.428-4.195
							C162.256,318.577,162.335,317.022,162.479,315.484z"/>
						<path style="fill:#5F3726;" d="M166.773,324.685c1.865,0.473,3.801,0.674,5.721,0.727c1.912,0.052,3.965,0.068,5.813-0.481
							c0.985-0.293,1.928-0.793,2.61-1.576c0.507-0.582,0.883-1.278,1.189-1.982c0.154-0.354,0.313-0.766,0.436-1.198
							c0.036,0.124,0.088,0.244,0.116,0.371c0.826,3.779-3.062,6.065-6.201,6.612c-3.858,0.672-10.172,0.784-12.624-2.843
							c-0.195-0.289-0.378-0.635-0.546-1.009C164.362,323.947,165.575,324.381,166.773,324.685z"/>
					</g>
					<path style="fill:#4B729B;" d="M174.566,204.305c0,0,6.413-3.835,11.016,10.962c4.603,14.797-9.62,89.494-9.62,89.494
						s-0.123,3.8-5.251,4.827c0,0-5.523,0.653-8.508-2.447l0.241-89.355C162.443,217.786,163.959,203.858,174.566,204.305z"/>
				</g>
			</g>
		</g>
		<g>
			<path style="fill:#C77D1E;" d="M122.965,118.902c0,0-22.916,4.799-29.076,19.02c-5.559,12.833-15.256,48.54-15.256,48.54h22.707
				c0,0,8.988-38.164,10.644-44.359C113.64,135.908,122.965,118.902,122.965,118.902z"/>
			<path style="fill:#C77D1E;" d="M158.818,121.066c0,0,18.556,2.635,24.715,16.856c5.559,12.833,15.256,48.54,15.256,48.54h-22.707
				c0,0-8.988-38.164-10.644-44.359C163.783,135.908,158.818,121.066,158.818,121.066z"/>
			<path style="fill:#E79A24;" d="M167.262,137.618c-0.5-4.588-1.293-10.316-2.493-14.728c-7.546-4.408-21.259-5.404-21.259-5.404
				h-3.54h-3.625h-3.54c0,0-13.086,0.698-20.784,5.023c-1.2,4.412-2.467,10.521-2.967,15.109c-1.05,9.638-0.648,19.399,0.368,29.016
				c0.703,6.645,1.697,13.24,2.733,19.827h24.19h3.625h24.19c1.036-6.586,2.03-13.182,2.733-19.827
				C167.91,157.017,168.312,147.256,167.262,137.618z"/>
			<path style="fill:#EFCAAC;" d="M149.663,119.867c-2.888-1.507-1.547-16.451-1.547-16.451h-18.871c0,0,1.341,14.943-1.547,16.451
				c-2.888,1.508-4.293,1.097-2.881,5.648c1.148,3.701,5.469,5.526,11.622,5.952c0,0,1.501,0.099,2.241,0.087
				c0.74,0.012,2.241-0.087,2.241-0.087c6.153-0.426,10.474-2.25,11.622-5.952C153.957,120.964,152.552,121.375,149.663,119.867z"/>
			<path style="fill:#EFCAAC;" d="M165.501,88.36c-0.706-0.93-1.925-1.546-3.022-1.768c-2.584-0.523-3.991,2.923-4.677,4.809
				c-1.142,3.14-2.029,6.494-2.574,9.783c-0.081,0.49-0.123,1.074,0.251,1.4c0.248,0.216,0.606,0.244,0.935,0.232
				c5.206-0.191,7.394-6.646,9.099-10.597c0.273-0.633,0.531-1.287,0.578-1.974C166.141,89.524,165.904,88.891,165.501,88.36z"/>
			<path style="fill:#EFCAAC;" d="M111.549,90.244c0.047,0.688,0.305,1.341,0.578,1.974c1.706,3.951,3.894,10.406,9.099,10.597
				c0.329,0.012,0.687-0.016,0.935-0.232c0.374-0.326,0.333-0.91,0.251-1.4c-0.545-3.289-1.432-6.643-2.574-9.783
				c-0.686-1.886-2.093-5.332-4.677-4.809c-1.097,0.222-2.316,0.839-3.022,1.768C111.736,88.891,111.5,89.524,111.549,90.244z"/>
			<path style="fill:#F6DFC9;" d="M161.877,66.804c-1.39-5.857-4.356-11.161-9.626-14.338c-10.063-6.065-27.763-3.448-33.747,7.381
				c-1.207,2.184-2.33,4.556-3.082,6.934c-3.003,9.487,0.114,21.089,2.921,30.294c2.185,7.169,6.115,14.153,13.436,17.012
				c16.836,6.574,26.967-10.612,29.598-24.539C162.766,82.193,163.622,74.152,161.877,66.804z"/>
			<g>
				<g>
					<path style="fill:#1B374F;" d="M154.599,87.225c-1.794-1.791-4.296-2.359-6.622-1.478c-2.02,0.766-3.453,2.566-4.135,4.665
						c0.066-0.039,0.122-0.091,0.153-0.146c1.013-1.802,3.219-3.159,5.152-3.448c1.191-0.178,2.452,0.126,3.563,0.572
						c0.607,0.243,1.213,0.484,1.781,0.823c0.562,0.335,1.068,0.778,1.596,1.17c0.002,0.002,0.005,0.002,0.008,0.003
						C155.732,88.579,155.222,87.847,154.599,87.225z"/>
				</g>
			</g>
			<g>
				<g>
					<path style="fill:#1B374F;" d="M132.247,87.225c-1.794-1.791-4.296-2.359-6.622-1.478c-2.021,0.766-3.453,2.566-4.135,4.665
						c0.065-0.039,0.122-0.091,0.153-0.146c1.013-1.802,3.219-3.159,5.152-3.448c1.191-0.178,2.452,0.126,3.563,0.572
						c0.607,0.243,1.214,0.484,1.781,0.823c0.562,0.335,1.068,0.778,1.596,1.17c0.002,0.002,0.005,0.002,0.008,0.003
						C133.379,88.579,132.87,87.847,132.247,87.225z"/>
				</g>
			</g>
			<g>
				<path style="fill:#492717;" d="M150.729,92.018c0,1.513-0.645,2.74-1.44,2.74c-0.796,0-1.441-1.227-1.441-2.74
					c0-1.513,0.645-2.74,1.441-2.74C150.084,89.278,150.729,90.505,150.729,92.018z"/>
				<path style="fill:#FFFFFF;" d="M150.305,90.945c0,0.296-0.126,0.537-0.282,0.537c-0.156,0-0.282-0.24-0.282-0.537
					c0-0.296,0.126-0.537,0.282-0.537C150.178,90.408,150.305,90.648,150.305,90.945z"/>
			</g>
			<g>
				<path style="fill:#492717;" d="M129.817,92.018c0,1.513-0.645,2.74-1.44,2.74c-0.796,0-1.441-1.227-1.441-2.74
					c0-1.513,0.645-2.74,1.441-2.74C129.172,89.278,129.817,90.505,129.817,92.018z"/>
				<path style="fill:#FFFFFF;" d="M129.393,90.945c0,0.296-0.126,0.537-0.282,0.537c-0.156,0-0.282-0.24-0.282-0.537
					c0-0.296,0.126-0.537,0.282-0.537C129.266,90.408,129.393,90.648,129.393,90.945z"/>
			</g>
			<path style="fill:#F6DFC9;" d="M140.493,101.94c-0.46,0.382-0.949,0.71-1.515,0.801c-0.096,0.031-0.196,0.053-0.297,0.075
				c-0.101-0.021-0.2-0.044-0.297-0.075c-0.566-0.091-1.055-0.418-1.515-0.801c-0.377-0.217-0.776-0.386-1.179-0.545
				c0.404,0.477,0.683,1.035,1.186,1.427c0.483,0.376,1.069,0.602,1.68,0.604c0.004,0.001,0.008,0.002,0.013,0.003
				c0.038,0.004,0.074-0.003,0.112-0.001c0.038-0.002,0.074,0.005,0.112,0.001c0.004-0.001,0.008-0.002,0.013-0.003
				c0.61-0.002,1.197-0.228,1.679-0.604c0.504-0.392,0.783-0.951,1.186-1.427C141.269,101.554,140.87,101.723,140.493,101.94z"/>
			<path style="fill:#FFFFFF;" d="M131.979,106.238c0,0,6.438,1.68,12.358,1.928c0,0-1.332,0.841-5.593,0.393
				C134.483,108.11,131.979,106.238,131.979,106.238z"/>
			<g>
				<path style="fill:#EFCAAC;" d="M110.99,186.53c0.157-0.204,0.246-0.452,0.194-0.721c-0.114-0.595-0.849-0.844-1.32-1.096
					c-1.989-1.06-3.82-2.247-5.469-3.792c-0.702-0.658-1.343-1.527-2.139-2.072c-0.826-0.566-1.993-0.609-2.945-0.816
					c-2.336-0.509-4.661-1.009-7.027-1.369c-1.99-0.303-4.094-0.795-6.066-0.166c-1.968,0.628-3.5,2.117-4.923,3.55
					c-1.484,1.494-2.862,3.102-3.589,5.086c-0.043,0.081-0.395,0.749-0.626,1.396H110.99z"/>
				<path style="fill:#D2A27C;" d="M89.598,186.53c0.297-0.557,0.621-1.098,0.987-1.612c0.672-1.707,1.649-3.309,2.932-4.572
					c1.117-1.099,2.498-1.814,4.045-2.086c0.855-0.15,1.752-0.177,2.61-0.03c0.684,0.117,1.268,0.399,1.902,0.659
					c0.032,0.013,0.088-0.029,0.076-0.065c-0.209-0.616-1.025-0.804-1.59-0.934c-0.83-0.19-1.698-0.226-2.542-0.124
					c-1.626,0.198-3.151,0.868-4.387,1.94c-2.002,1.736-3.343,4.252-4.052,6.824H89.598z"/>
				<path style="fill:#D2A27C;" d="M96.104,186.53c0.047-0.058,0.1-0.123,0.141-0.173c0.413-0.51,0.784-1.064,1.248-1.531
					c0.45-0.452,0.918-0.886,1.427-1.271c0.467-0.352,1.208-0.846,1.828-0.724c0.088,0.017,0.222-0.131,0.104-0.167
					c-0.278-0.083-0.531-0.127-0.819-0.073c-0.33,0.063-0.641,0.224-0.928,0.392c-0.605,0.353-1.13,0.825-1.632,1.309
					c-0.463,0.446-0.856,0.932-1.249,1.438c-0.153,0.197-0.317,0.386-0.479,0.577c-0.018,0.073-0.033,0.147-0.05,0.222H96.104z"/>
				<path style="fill:#D2A27C;" d="M80.161,186.53c0.105-0.63,0.244-1.252,0.457-1.855c0.006-0.05,0.012-0.092,0.015-0.115
					c0.218-1.546,0.902-3.055,1.774-4.338c1.08-1.588,2.644-3.035,4.511-3.61c2.119-0.653,4.051,0.158,6.139,0.404
					c-1.565,0.348-3.046,1.249-4.287,2.226c-2.237,1.76-4.147,4.404-4.656,7.288h0.183c0.065-0.176,0.127-0.357,0.188-0.529
					c0.196-0.557,0.421-1.134,0.731-1.65c0.786-1.792,2.078-3.398,3.529-4.599c1.153-0.954,2.513-1.831,3.962-2.246
					c1.552-0.446,3.61-0.251,5.08,0.454c0.052,0.025,0.184-0.048,0.125-0.108c-0.52-0.529-1.261-0.653-1.96-0.813
					c-0.876-0.199-1.75-0.242-2.638-0.081c-0.025,0.004-0.049,0.012-0.074,0.017c0.023-0.031,0.031-0.066-0.006-0.087
					c-1.489-0.838-3.464-1.218-5.16-1.027c-1.693,0.19-3.219,1.081-4.457,2.218c-2.097,1.926-3.404,4.621-3.673,7.443
					c-0.018,0.185-0.076,0.583-0.099,1.009H80.161z"/>
			</g>
			<g>
				<path style="fill:#EFCAAC;" d="M166.433,186.53c-0.157-0.204-0.246-0.452-0.194-0.721c0.114-0.595,0.849-0.844,1.32-1.096
					c1.989-1.06,3.82-2.247,5.469-3.792c0.702-0.658,1.343-1.527,2.139-2.072c0.827-0.566,1.993-0.609,2.945-0.816
					c2.336-0.509,4.661-1.009,7.027-1.369c1.99-0.303,4.094-0.795,6.066-0.166c1.968,0.628,3.5,2.117,4.923,3.55
					c1.483,1.494,2.862,3.102,3.589,5.086c0.043,0.081,0.395,0.749,0.626,1.396H166.433z"/>
				<path style="fill:#D2A27C;" d="M187.825,186.53c-0.296-0.557-0.621-1.098-0.987-1.612c-0.672-1.707-1.649-3.309-2.932-4.572
					c-1.117-1.099-2.498-1.814-4.045-2.086c-0.855-0.15-1.752-0.177-2.61-0.03c-0.684,0.117-1.268,0.399-1.902,0.659
					c-0.032,0.013-0.088-0.029-0.076-0.065c0.209-0.616,1.025-0.804,1.59-0.934c0.83-0.19,1.698-0.226,2.542-0.124
					c1.626,0.198,3.151,0.868,4.387,1.94c2.002,1.736,3.343,4.252,4.052,6.824H187.825z"/>
				<path style="fill:#D2A27C;" d="M181.319,186.53c-0.047-0.058-0.1-0.123-0.141-0.173c-0.413-0.51-0.784-1.064-1.248-1.531
					c-0.45-0.452-0.918-0.886-1.427-1.271c-0.467-0.352-1.208-0.846-1.828-0.724c-0.088,0.017-0.222-0.131-0.104-0.167
					c0.278-0.083,0.531-0.127,0.819-0.073c0.33,0.063,0.641,0.224,0.928,0.392c0.605,0.353,1.13,0.825,1.632,1.309
					c0.463,0.446,0.856,0.932,1.249,1.438c0.153,0.197,0.317,0.386,0.479,0.577c0.018,0.073,0.033,0.147,0.05,0.222H181.319z"/>
				<path style="fill:#D2A27C;" d="M197.261,186.53c-0.105-0.63-0.244-1.252-0.457-1.855c-0.006-0.05-0.012-0.092-0.015-0.115
					c-0.218-1.546-0.902-3.055-1.774-4.338c-1.08-1.588-2.644-3.035-4.511-3.61c-2.119-0.653-4.051,0.158-6.139,0.404
					c1.564,0.348,3.046,1.249,4.287,2.226c2.237,1.76,4.147,4.404,4.656,7.288h-0.183c-0.065-0.176-0.127-0.357-0.188-0.529
					c-0.197-0.557-0.421-1.134-0.731-1.65c-0.786-1.792-2.077-3.398-3.529-4.599c-1.153-0.954-2.513-1.831-3.962-2.246
					c-1.552-0.446-3.611-0.251-5.079,0.454c-0.052,0.025-0.184-0.048-0.125-0.108c0.52-0.529,1.261-0.653,1.96-0.813
					c0.876-0.199,1.75-0.242,2.638-0.081c0.025,0.004,0.049,0.012,0.074,0.017c-0.023-0.031-0.03-0.066,0.006-0.087
					c1.489-0.838,3.464-1.218,5.16-1.027c1.693,0.19,3.219,1.081,4.457,2.218c2.097,1.926,3.404,4.621,3.673,7.443
					c0.018,0.185,0.077,0.583,0.099,1.009H197.261z"/>
			</g>
			<path style="fill:#1B374F;" d="M171.426,67.591c-2.421-1.132-4.292-3.019-6.03-5.004c-1.855-2.119-3.557-4.367-5.433-6.466
				c-3.142-3.517-7.233-6.89-12.118-7.305c-1.163-0.099-2.529-0.013-3.562,0.559c-0.745-0.794-1.793-1.305-2.855-1.599
				c-3.685-1.022-7.723-0.076-11.156,1.371c-8.064,3.398-14.666,9.43-19.41,16.726c-1.071,1.647-2.085,3.363-3.018,5.093
				c-0.795,1.473-1.746,3.236-1.561,4.967c0.036,0.333,0.531,0.146,0.658,0.012c0.14-0.147,0.272-0.304,0.405-0.459
				c-0.052,0.63-0.045,1.262,0.045,1.889c0.006,0.05,0.015,0.1,0.023,0.15c0.046,0.277,0.102,0.553,0.185,0.828
				c0.489,1.627,1.808,2.707,3.027,3.796c1.329,1.188,2.284,2.552,2.999,4.183c0.691,1.576,1.106,3.247,1.602,4.89
				c0.281,0.928,0.588,1.85,0.891,2.771c0.308,0.936,0.662,1.866,1.236,2.675c0.202,0.285,0.708-0.031,0.715-0.316
				c0.024-1.052-0.083-2.091-0.106-3.141c-0.024-1.045,0.115-2.055,0.387-3.064c0.005-0.018,0.012-0.036,0.017-0.054
				c0.153-0.002,0.307-0.016,0.459-0.044c0.028,0.005,0.044,0.021,0.082,0.016c1.429-0.205,2.842-0.812,4.127-1.447
				c0.972-0.48,1.903-1.047,2.789-1.674c3.657-1.307,6.824-3.865,9.081-7.007c1.228-1.71,2.192-3.609,2.887-5.594
				c0.292-0.834,0.506-1.669,0.683-2.51c-0.223,1.35-0.577,2.686-0.986,3.949c-1.182,3.648-3.21,6.917-5.953,9.597
				c-1.578,1.542-3.354,2.839-5.184,4.062c-0.23,0.154-0.048,0.391,0.182,0.26c3.145-1.785,6.004-4.193,8.141-7.122
				c2.321-3.181,3.827-7.02,4.367-10.916c0.144-1.041,0.305-2.175,0.171-3.224c-0.002-0.013-0.007-0.041-0.01-0.059
				c0.4-0.116,0.806-0.209,1.216-0.285c0.208-0.018,0.414-0.031,0.615-0.039c0.902-0.037,1.796,0.08,2.668,0.306
				c0.021,0.005,0.042,0.014,0.063,0.02c0.085,6.371,3.972,12.285,9.303,15.708c1.586,1.018,3.332,1.824,5.213,2.073
				c0.168,0.022,0.396-0.303,0.17-0.354c-3.361-0.765-6.264-2.772-8.646-5.211c-2.395-2.451-4.191-5.379-5.027-8.721
				c-0.152-0.608-0.264-1.223-0.358-1.842c0.036,0.158,0.061,0.318,0.109,0.471c0.277,0.88,0.637,1.735,1.031,2.568
				c1.772,3.756,4.518,7.336,8.059,9.574c0.604,0.382,1.241,0.706,1.896,0.979c0.693,0.535,1.4,1.049,2.121,1.536
				c0.717,0.485,1.475,0.902,2.234,1.318c0.297,0.163,0.639,0.355,0.991,0.459c-0.006,0.385-0.048,0.771-0.087,1.146
				c-0.155,1.481-0.742,2.934-0.655,4.435c0.02,0.343,0.478,0.235,0.599,0.011c0.828-1.53,1.417-3.155,2.121-4.742
				c0.134-0.303,0.278-0.602,0.421-0.901c0.103-0.172,0.205-0.344,0.308-0.517c0.022,0,0.045,0.002,0.067,0.002
				c0.262-0.006,0.729-0.539,0.305-0.627c1.255-2.094,2.522-4.18,3.824-6.243c1.094-1.734,3.717-3.84,1.872-5.97
				c-0.367-0.424-0.83-0.753-1.292-1.081c0.672,0.279,1.322,0.604,1.928,1.047c0.322,0.236,0.796-0.189,0.751-0.526
				c-0.264-1.956-1.702-3.37-3.19-4.579c1.089,0.095,2.179,0.227,3.243-0.084C171.279,68.256,171.819,67.775,171.426,67.591z"/>
		</g>
		<g>
			<path style="fill:#7D8282;" d="M90.158,127.428c-1.776,0-3.173,1.516-3.028,3.286l4.581,55.924h0.669h92.661h0.669l4.581-55.924
				c0.145-1.77-1.252-3.286-3.028-3.286H90.158z"/>
			<path style="fill:#9BA0A0;" d="M92.13,128.076c-1.704,0-3.044,1.487-2.905,3.223l4.395,54.857h0.642h88.899h0.642l4.395-54.857
				c0.139-1.736-1.201-3.223-2.905-3.223H92.13z"/>
			<path style="fill:#7D8282;" d="M144.262,158.464c0,3.066-2.485,5.551-5.551,5.551c-3.066,0-5.551-2.485-5.551-5.551
				s2.485-5.551,5.551-5.551C141.777,152.913,144.262,155.399,144.262,158.464z"/>
			<path style="fill:#BEC0C2;" d="M143.926,158.128c0,2.88-2.335,5.215-5.215,5.215c-2.88,0-5.215-2.335-5.215-5.215
				c0-2.88,2.335-5.215,5.215-5.215C141.592,152.913,143.926,155.248,143.926,158.128z"/>
			<path style="fill:#BEC0C2;" d="M184.249,128.996h-38.971h-14.133H92.173c-2.927,0.334-2.007,4.516-2.007,4.516
				c0.188-3.345,2.76-3.429,2.76-3.429h90.571c0,0,2.572,0.084,2.76,3.429C186.256,133.512,187.176,129.33,184.249,128.996z"/>
		</g>
		<g>
			<path style="fill:#5F6163;" d="M47.567,187.917v1.881c0,0.909-7.136,1.646-15.938,1.646c-8.802,0-15.938-0.737-15.938-1.646
				v-1.881H47.567z"/>
			<g>
				<path style="fill:#7B7C7F;" d="M15.69,187.917c0,0.909,7.136,1.646,15.938,1.646c8.802,0,15.938-0.737,15.938-1.646
					s-7.136-1.645-15.938-1.645C22.826,186.272,15.69,187.008,15.69,187.917z"/>
				<g>
					<path style="fill:#7B7C7F;" d="M20.582,159.764c0.926-0.154,1.803,0.471,1.957,1.397l4.231,25.348
						c0.024,0.142,0.023,0.282,0.012,0.419h-3.39l-4.208-25.207C19.03,160.794,19.655,159.918,20.582,159.764z"/>
					<path style="fill:#7B7C7F;" d="M20.42,163.465c-0.376-0.075-0.714-0.234-1.019-0.442l-0.217-1.302
						c-0.155-0.926,0.471-1.803,1.397-1.957c0.926-0.154,1.803,0.471,1.957,1.397l0.206,1.235
						C22.198,163.134,21.388,163.658,20.42,163.465z"/>
					<path style="fill:#7B7C7F;" d="M20.86,163.142c0.564,0,1.115-0.28,1.439-0.792l34.697-54.86
						c0.501-0.793,0.266-1.844-0.528-2.346c-0.794-0.502-1.844-0.266-2.346,0.528l-34.697,54.86
						c-0.501,0.793-0.266,1.844,0.528,2.346C20.235,163.056,20.55,163.142,20.86,163.142z"/>
					<path style="fill:#7B7C7F;" d="M48.774,114.127l5.347-8.455c0.502-0.794,1.552-1.031,2.346-0.528
						c0.794,0.502,1.03,1.553,0.528,2.346l-5.637,8.912C50.522,115.615,49.659,114.859,48.774,114.127z"/>
					<path style="fill:#3E4042;" d="M20.58,161.471c0,0.272,0.221,0.494,0.494,0.494c0.273,0,0.493-0.221,0.493-0.494
						c0-0.273-0.221-0.494-0.493-0.494C20.801,160.977,20.58,161.199,20.58,161.471z"/>
					<g>
						<path style="fill:#7B7C7F;" d="M46.598,110.775c-0.02,0.002-0.042,0.009-0.056,0c-0.357-0.213,1.407-3.826,3.94-8.07
							c2.533-4.244,4.875-7.512,5.232-7.299l0.012-0.02l34.81,12.669L74.49,134.944L46.598,110.775z"/>
						<path style="fill:#36383A;" d="M74.49,134.944c0.357,0.213,4.238-5.634,8.669-13.059c4.431-7.425,7.733-13.617,7.376-13.83
							c-0.357-0.213-4.238,5.634-8.668,13.059C77.436,128.539,74.133,134.731,74.49,134.944z"/>
					</g>
				</g>
			</g>
		</g>
		<g>
			<g>
				<path style="fill:#E3E2D7;" d="M237.88,153.851c-1.232-4.809,2.494-7.03,2.494-7.03s-6.624-0.033-10.153-0.049l0-0.01
					c-0.037,0-0.442,0.002-1.076,0.005c-0.634-0.003-1.039-0.005-1.076-0.005l0,0.01c-3.529,0.017-10.153,0.049-10.153,0.049
					s3.726,2.221,2.494,7.03c-1.232,4.809-6.491,6.626-5.465,18.596c1.026,11.97,8.187,16.78,8.187,16.78h0.031
					c0,0.197,2.518,0.356,5.624,0.356c0.121,0,0.239-0.001,0.358-0.001c0.119,0.001,0.237,0.001,0.358,0.001
					c3.106,0,5.624-0.16,5.624-0.356h0.032c0,0,7.161-4.809,8.187-16.78C244.371,160.477,239.113,158.661,237.88,153.851z"/>
				<path style="fill:#B2B6B6;" d="M240.41,146.762c0,0.394-5.035,0.713-11.247,0.713c-6.212,0-11.247-0.319-11.247-0.713
					s5.036-0.713,11.247-0.713C235.374,146.049,240.41,146.368,240.41,146.762z"/>
				<g>
					<polygon style="fill:#B29E7A;" points="223.26,181.439 222.327,181.439 222.521,180.681 222.975,180.628 					"/>
					<polygon style="fill:#AFA0AB;" points="226.26,184.688 226.141,184.399 226.4,184.362 226.475,184.496 					"/>
					<polygon style="fill:#C1A280;" points="220.521,184.85 220.345,184.422 220.729,184.368 220.839,184.566 					"/>
					<polygon style="fill:#ADC1BD;" points="226.955,179.851 226.707,179.251 227.247,179.175 227.402,179.453 					"/>
					<polygon style="fill:#EBE9A2;" points="223.624,187.531 223.377,186.931 223.916,186.855 224.071,187.133 					"/>
				</g>
				<g>
					<polygon style="fill:#B29E7A;" points="233.891,184.423 234.603,183.82 234.945,184.525 234.633,184.859 					"/>
					<polygon style="fill:#AFA0AB;" points="229.503,183.883 229.78,184.026 229.605,184.222 229.462,184.168 					"/>
					<polygon style="fill:#C1A280;" points="233.777,180.05 234.188,180.263 233.93,180.553 233.718,180.473 					"/>
					<polygon style="fill:#ADC1BD;" points="232.097,188.023 232.674,188.321 232.311,188.728 232.014,188.615 					"/>
					<polygon style="fill:#EBE9A2;" points="229.677,180.009 230.254,180.308 229.891,180.714 229.593,180.602 					"/>
				</g>
				<g>
					<polygon style="fill:#ADC1BD;" points="240.489,177.392 241.201,176.789 241.543,177.493 241.231,177.828 					"/>
					<polygon style="fill:#AFA0AB;" points="236.101,176.851 236.378,176.995 236.203,177.19 236.06,177.136 					"/>
					<polygon style="fill:#C1A280;" points="240.375,173.019 240.786,173.232 240.528,173.521 240.316,173.441 					"/>
					<polygon style="fill:#DBCA74;" points="238.695,180.991 239.272,181.29 238.909,181.696 238.611,181.584 					"/>
					<polygon style="fill:#EBE9A2;" points="236.275,172.977 236.852,173.276 236.489,173.683 236.191,173.57 					"/>
				</g>
				<g>
					<polygon style="fill:#ADC1BD;" points="221.273,174.87 221.985,174.268 222.327,174.972 222.015,175.306 					"/>
					<polygon style="fill:#AFA0AB;" points="216.885,174.33 217.162,174.473 216.987,174.669 216.844,174.615 					"/>
					<polygon style="fill:#C1A280;" points="221.159,170.498 221.57,170.71 221.312,171 221.1,170.92 					"/>
					<polygon style="fill:#DBCA74;" points="219.479,178.47 220.056,178.768 219.693,179.175 219.395,179.063 					"/>
					<polygon style="fill:#EBE9A2;" points="217.059,170.456 217.636,170.755 217.273,171.161 216.975,171.049 					"/>
				</g>
				<g>
					<polygon style="fill:#84B5BC;" points="221.738,162.747 222.67,162.699 222.514,163.466 222.063,163.543 					"/>
					<polygon style="fill:#AFA0AB;" points="218.576,159.656 218.709,159.938 218.452,159.988 218.371,159.858 					"/>
					<polygon style="fill:#C1A280;" points="224.299,159.201 224.497,159.619 224.116,159.692 223.995,159.5 					"/>
					<polygon style="fill:#DBCA74;" points="218.129,164.521 218.406,165.108 217.871,165.211 217.703,164.941 					"/>
					<polygon style="fill:#EBE9A2;" points="221.064,156.681 221.341,157.268 220.806,157.371 220.637,157.102 					"/>
				</g>
				<g>
					<polygon style="fill:#84B5BC;" points="232.89,158.302 232.196,158.927 231.833,158.233 232.135,157.889 					"/>
					<polygon style="fill:#AFA0AB;" points="237.292,158.71 237.011,158.574 237.179,158.374 237.324,158.423 					"/>
					<polygon style="fill:#C1A280;" points="233.136,162.67 232.718,162.469 232.968,162.172 233.182,162.246 					"/>
					<polygon style="fill:#DBCA74;" points="234.573,154.65 233.988,154.369 234.338,153.952 234.639,154.055 					"/>
					<polygon style="fill:#EBE9A2;" points="237.236,162.587 236.65,162.306 237,161.888 237.301,161.992 					"/>
				</g>
				<g>
					<polygon style="fill:#84B5BC;" points="229.087,153.848 229.738,153.18 230.146,153.848 229.868,154.21 					"/>
					<polygon style="fill:#AFA0AB;" points="224.667,153.734 224.957,153.85 224.803,154.061 224.655,154.021 					"/>
					<polygon style="fill:#C1A280;" points="228.553,149.507 228.982,149.679 228.753,149.992 228.534,149.933 					"/>
					<polygon style="fill:#DBCA74;" points="227.65,157.604 228.253,157.846 227.931,158.285 227.623,158.202 					"/>
					<polygon style="fill:#EBE9A2;" points="224.467,149.861 225.07,150.103 224.748,150.542 224.441,150.46 					"/>
				</g>
				<g>
					<polygon style="fill:#84B5BC;" points="230.1,172.544 231.032,172.496 230.877,173.263 230.426,173.34 					"/>
					<polygon style="fill:#AFA0AB;" points="226.939,169.453 227.072,169.735 226.815,169.785 226.734,169.655 					"/>
					<polygon style="fill:#C1A280;" points="232.662,168.998 232.859,169.416 232.478,169.49 232.358,169.297 					"/>
					<polygon style="fill:#DBCA74;" points="226.491,174.318 226.769,174.905 226.234,175.009 226.065,174.739 					"/>
					<polygon style="fill:#EBE9A2;" points="229.426,166.478 229.704,167.065 229.169,167.169 229,166.899 					"/>
				</g>
				<g>
					<polygon style="fill:#ADC1BD;" points="236.747,168.984 236.807,169.916 236.038,169.77 235.955,169.32 					"/>
					<polygon style="fill:#AFA0AB;" points="239.796,165.782 239.516,165.919 239.463,165.663 239.591,165.58 					"/>
					<polygon style="fill:#C1A280;" points="240.326,171.499 239.911,171.702 239.832,171.322 240.023,171.199 					"/>
					<polygon style="fill:#DBCA74;" points="234.925,165.399 234.342,165.684 234.232,165.151 234.499,164.978 					"/>
					<polygon style="fill:#EBE9A2;" points="242.803,168.23 242.22,168.516 242.109,167.982 242.377,167.81 					"/>
				</g>
			</g>
			<polygon style="fill:#436A46;" points="231.032,110.565 231.032,147.464 232.014,147.474 232.718,117.146 			"/>
			<polygon style="fill:#436A46;" points="227.222,126.113 228.586,147.485 229.565,147.428 229.148,129.817 			"/>
			<g>
				<path style="fill:#8AB676;" d="M235.44,124.257c-0.34-2.045-1.635-4.149-3.859-4.416c-1.111-0.133-2.215,0.263-3.174,0.791
					c-1.062,0.584-2.012,1.341-2.831,2.235c-0.866,0.945-1.532,2.015-2.217,3.092c-0.068,0.107-0.136,0.213-0.205,0.319
					c0.066-0.822,0.136-1.661,0.064-2.487c0.055-0.641,0.036-1.288-0.069-1.938c-0.35-2.176-1.697-4.357-3.783-5.245
					c-3.367-1.434-6.094,2.276-7.462,4.821c-1.004,1.868-1.672,3.875-2.088,5.952c-0.122,0.608-0.218,1.222-0.297,1.837
					c-0.012,0.151-0.023,0.302-0.032,0.452c-0.099,1.679-0.037,3.373,0.239,5.034c0.143,0.86,0.343,1.709,0.467,2.573
					c0.117,0.816,0.189,1.639,0.193,2.463c0.005,0.835-0.063,1.669-0.191,2.494c-0.141,0.908-0.375,1.79-0.587,2.682
					c-0.402,1.694-0.59,3.425-0.493,5.166c0.049,0.887,0.167,1.77,0.325,2.644c0.176,0.976,0.404,1.938,0.526,2.923
					c0.297,2.399,0.446,4.812,0.74,7.214c0.105,0.853,0.608,1.588,1.558,1.584c0.169-0.001,0.339-0.028,0.492-0.1
					c1.655-0.783,3.162-2.305,4.422-3.611c0.926-0.959,1.714-2.039,2.584-3.048c1.577-1.829,3.309-3.536,4.461-5.684
					c0.649-1.21,1.093-2.525,1.567-3.81c0.466-1.265,0.941-2.531,1.549-3.736c0.595-1.179,1.365-2.245,2.106-3.334
					c0.7-1.03,1.393-2.065,2.051-3.121c1.302-2.09,2.494-4.28,3.266-6.626C235.515,129.085,235.838,126.649,235.44,124.257z"/>
				<path style="fill:#5B895D;" d="M235.44,124.257c-0.34-2.045-1.635-4.149-3.859-4.416c-1.111-0.133-2.215,0.263-3.174,0.791
					c-1.062,0.584-2.012,1.341-2.831,2.235c-0.857,0.936-1.518,1.994-2.196,3.06c-0.116,0.342-0.243,0.68-0.38,1.015
					c-0.576,1.404-1.316,2.74-1.819,4.174c-1.073,3.063-1.419,6.307-1.924,9.495c-0.248,1.571-0.54,3.135-0.958,4.67
					c-0.43,1.576-1.01,3.106-1.631,4.615c-0.626,1.521-1.296,3.024-1.9,4.554c-0.601,1.523-1.105,3.071-1.511,4.657
					c-0.45,1.76-0.8,3.542-1.055,5.337c0.021,0.001,0.041,0.003,0.062,0.003c0.169-0.001,0.339-0.028,0.492-0.1
					c1.655-0.783,3.162-2.305,4.422-3.611c0.926-0.959,1.714-2.039,2.584-3.048c1.577-1.829,3.309-3.536,4.461-5.684
					c0.649-1.21,1.093-2.525,1.567-3.81c0.466-1.265,0.941-2.531,1.549-3.736c0.595-1.179,1.365-2.245,2.106-3.334
					c0.7-1.03,1.393-2.065,2.051-3.121c1.302-2.09,2.494-4.28,3.266-6.626C235.515,129.085,235.838,126.649,235.44,124.257z"/>
				<path style="fill:#5B895D;" d="M226.996,124.459c0.633,0.951,1.102,1.999,1.557,3.043c0.241,0.554,0.46,1.117,0.74,1.653
					c0.282,0.539,0.607,1.054,0.96,1.549c0.968,1.357,2.125,2.561,3.192,3.837c0.508-1.026,0.958-2.079,1.316-3.167
					c0.753-2.29,1.076-4.726,0.678-7.118c-0.34-2.045-1.635-4.149-3.859-4.416c-1.111-0.133-2.215,0.263-3.174,0.791
					c-1.054,0.58-1.998,1.332-2.813,2.216C226.128,123.317,226.596,123.859,226.996,124.459z"/>
				<path style="fill:#8AB676;" d="M219.273,107.412c0.078-2.072,1.095-4.323,3.267-4.87c1.085-0.273,2.23-0.02,3.249,0.382
					c1.128,0.445,2.166,1.075,3.091,1.857c0.979,0.827,1.775,1.805,2.591,2.786c0.081,0.097,0.162,0.194,0.244,0.29
					c-0.17-0.807-0.345-1.631-0.379-2.459c-0.136-0.629-0.199-1.273-0.178-1.931c0.071-2.203,1.13-4.537,3.086-5.683
					c3.158-1.85,6.334,1.484,8.013,3.835c1.233,1.725,2.151,3.631,2.827,5.639c0.198,0.588,0.371,1.184,0.528,1.785
					c0.031,0.148,0.061,0.296,0.089,0.445c0.312,1.653,0.465,3.342,0.402,5.024c-0.033,0.871-0.124,1.738-0.137,2.611
					c-0.012,0.824,0.021,1.65,0.121,2.468c0.102,0.829,0.274,1.648,0.506,2.45c0.255,0.883,0.599,1.727,0.923,2.586
					c0.614,1.629,1.02,3.323,1.145,5.062c0.064,0.887,0.059,1.777,0.014,2.664c-0.05,0.991-0.155,1.973-0.15,2.966
					c0.01,2.417,0.169,4.83,0.182,7.249c0.004,0.859-0.401,1.652-1.344,1.768c-0.167,0.021-0.34,0.016-0.501-0.036
					c-1.741-0.566-3.429-1.885-4.845-3.02c-1.04-0.834-1.96-1.805-2.95-2.695c-1.796-1.614-3.731-3.088-5.146-5.072
					c-0.797-1.118-1.405-2.366-2.038-3.581c-0.623-1.196-1.254-2.391-2.011-3.509c-0.74-1.093-1.639-2.053-2.512-3.04
					c-0.825-0.932-1.644-1.871-2.431-2.836c-1.557-1.908-3.017-3.929-4.081-6.158C219.812,112.211,219.182,109.836,219.273,107.412z
					"/>
				<path style="fill:#5B895D;" d="M219.273,107.412c0.078-2.072,1.095-4.323,3.267-4.87c1.085-0.273,2.23-0.02,3.249,0.382
					c1.128,0.445,2.166,1.075,3.091,1.857c0.969,0.819,1.759,1.785,2.567,2.756c0.158,0.324,0.327,0.644,0.506,0.959
					c0.749,1.32,1.654,2.551,2.334,3.909c1.453,2.902,2.209,6.076,3.114,9.174c0.446,1.527,0.934,3.041,1.544,4.511
					c0.626,1.509,1.396,2.953,2.204,4.371c0.815,1.429,1.669,2.835,2.463,4.275c0.79,1.435,1.486,2.906,2.09,4.428
					c0.67,1.688,1.243,3.411,1.724,5.16c-0.021,0.003-0.04,0.008-0.061,0.011c-0.167,0.021-0.34,0.016-0.501-0.036
					c-1.741-0.566-3.429-1.885-4.845-3.02c-1.04-0.834-1.96-1.805-2.95-2.695c-1.796-1.614-3.731-3.088-5.146-5.072
					c-0.797-1.118-1.405-2.366-2.038-3.581c-0.623-1.196-1.254-2.391-2.011-3.509c-0.74-1.093-1.639-2.053-2.512-3.04
					c-0.825-0.932-1.644-1.871-2.431-2.836c-1.557-1.908-3.017-3.929-4.081-6.158C219.812,112.211,219.182,109.836,219.273,107.412z
					"/>
			</g>
		</g>
		<g>
			<g>
				<g>
					<g>
						<polygon style="fill:#A4775A;" points="243.003,339.306 248.711,339.306 254.419,196.739 243.003,196.739 						"/>
					</g>
					<polygon style="fill:#A4775A;" points="247.454,339.306 248.711,339.306 254.419,196.739 252.779,196.739 					"/>
				</g>
			</g>
			<g>
				<g>
					<g>
						<polygon style="fill:#A4775A;" points="27.106,339.306 21.398,339.306 15.69,196.739 27.106,196.739 						"/>
					</g>
					<polygon style="fill:#A4775A;" points="22.655,339.306 21.398,339.306 15.69,196.739 17.33,196.739 					"/>
				</g>
			</g>
			<rect x="11.88" y="187.359" style="fill:#72533D;" width="254.712" height="14.45"/>
			<rect x="4.161" y="186.721" style="fill:#A4775A;" width="269.1" height="6.323"/>
		</g>
	</g>
</g>
</svg>
